<svg xmlns="http://www.w3.org/2000/svg" xmlns:xlink="http://www.w3.org/1999/xlink" version="1.1" width="1000" height="1000" viewBox="0 0 1000 1000" xml:space="preserve">
<desc>Created with Fabric.js 3.5.0</desc>
<defs>
</defs>
<rect x="0" y="0" width="100%" height="100%" fill="#ffffff"/>
<g transform="matrix(11.5075 0 0 11.5075 500.0007 500.0007)" id="60069">
<g style="" vector-effect="non-scaling-stroke">
		<g transform="matrix(1 0 0 1 -21.6327 33.7382)">
<path style="stroke: none; stroke-width: 1; stroke-dasharray: none; stroke-linecap: butt; stroke-dashoffset: 0; stroke-linejoin: miter; stroke-miterlimit: 4; is-custom-font: none; font-file-url: none; fill: rgb(0,0,0); fill-opacity: 0; fill-rule: nonzero; opacity: 1;" transform=" translate(-17.8673, -69.7382)" d="M 17.8226 69.3563 C 18.9022 69.3563 19.5404 69.8486 19.5404 70.6364 C 19.5404 71.4241 18.9022 71.9254 17.8226 71.9254 H 16.1942 V 67.5511 H 19.111 V 68.0375 H 16.731 V 69.3563 H 17.8226 Z M 17.748 69.8427 H 16.731 V 71.436 H 17.748 C 18.5861 71.436 18.9917 71.1496 18.9917 70.6364 C 18.9917 70.1172 18.5861 69.8427 17.748 69.8427 Z" stroke-linecap="round"/>
</g>
		<g transform="matrix(1 0 0 1 -14.6077 33.7353)">
<path style="stroke: none; stroke-width: 1; stroke-dasharray: none; stroke-linecap: butt; stroke-dashoffset: 0; stroke-linejoin: miter; stroke-miterlimit: 4; is-custom-font: none; font-file-url: none; fill: rgb(0,0,0); fill-opacity: 0; fill-rule: nonzero; opacity: 1;" transform=" translate(-24.8923, -69.7353)" d="M 24.7357 72 C 23.8231 72 23.2117 71.624 22.7434 70.9049 L 23.0984 70.7169 C 23.4741 71.2481 24.011 71.4987 24.7088 71.4987 C 25.69 71.4987 26.4505 70.9676 26.5579 69.9799 H 24.0646 V 69.4906 H 26.5579 C 26.4505 68.5029 25.69 67.9718 24.7088 67.9718 C 23.8857 67.9718 23.334 68.4253 23.2355 69.0161 H 22.6719 C 22.7792 68.2045 23.4652 67.4705 24.7327 67.4705 C 26.1821 67.4705 27.1126 68.4015 27.1126 69.7323 C 27.1126 71.0631 26.1851 72 24.7357 72 Z" stroke-linecap="round"/>
</g>
		<g transform="matrix(1 0 0 1 -6.9266 33.0699)">
<path style="stroke: none; stroke-width: 1; stroke-dasharray: none; stroke-linecap: butt; stroke-dashoffset: 0; stroke-linejoin: miter; stroke-miterlimit: 4; is-custom-font: none; font-file-url: none; fill: rgb(0,0,0); fill-opacity: 0; fill-rule: nonzero; opacity: 1;" transform=" translate(-32.5734, -69.0699)" d="M 34.5656 71.9254 H 34.0586 V 68.4194 L 30.9927 71.9254 H 30.5812 V 67.5511 H 31.0852 V 71.0571 L 34.1511 67.5511 H 34.5626 V 71.9254 H 34.5656 Z M 33.2832 66.2144 H 33.7157 C 33.5964 66.7127 33.1788 67.1453 32.5794 67.1453 C 31.9799 67.1453 31.5683 66.7127 31.4431 66.2144 H 31.8755 C 32.0247 66.5903 32.2931 66.7395 32.5824 66.7395 C 32.8657 66.7395 33.1341 66.5873 33.2832 66.2144 Z" stroke-linecap="round"/>
</g>
		<g transform="matrix(1 0 0 1 0.6977 33.7382)">
<path style="stroke: none; stroke-width: 1; stroke-dasharray: none; stroke-linecap: butt; stroke-dashoffset: 0; stroke-linejoin: miter; stroke-miterlimit: 4; is-custom-font: none; font-file-url: none; fill: rgb(0,0,0); fill-opacity: 0; fill-rule: nonzero; opacity: 1;" transform=" translate(-40.1977, -69.7382)" d="M 40.1635 69.3384 L 42.105 71.9254 H 41.4131 L 39.8026 69.7203 L 38.8274 70.7319 V 71.9254 H 38.2905 V 67.5511 H 38.8274 V 69.968 L 41.1894 67.5511 H 41.8813 L 40.1635 69.3384 Z" stroke-linecap="round"/>
</g>
		<g transform="matrix(1 0 0 1 7.4006 33.7382)">
<path style="stroke: none; stroke-width: 1; stroke-dasharray: none; stroke-linecap: butt; stroke-dashoffset: 0; stroke-linejoin: miter; stroke-miterlimit: 4; is-custom-font: none; font-file-url: none; fill: rgb(0,0,0); fill-opacity: 0; fill-rule: nonzero; opacity: 1;" transform=" translate(-46.9006, -69.7382)" d="M 45.2961 67.5511 H 48.4366 V 68.0375 H 45.833 V 69.4249 H 48.1741 V 69.9113 H 45.833 V 71.436 H 48.5052 V 71.9254 H 45.2961 V 67.5511 Z" stroke-linecap="round"/>
</g>
		<g transform="matrix(1 0 0 1 14.1647 33.7382)">
<path style="stroke: none; stroke-width: 1; stroke-dasharray: none; stroke-linecap: butt; stroke-dashoffset: 0; stroke-linejoin: miter; stroke-miterlimit: 4; is-custom-font: none; font-file-url: none; fill: rgb(0,0,0); fill-opacity: 0; fill-rule: nonzero; opacity: 1;" transform=" translate(-53.6647, -69.7382)" d="M 53.4977 70.2753 H 52.4718 V 71.9254 H 51.9349 V 67.5511 H 53.4947 C 54.6698 67.5511 55.3945 68.0076 55.3945 68.9117 C 55.3945 69.8188 54.6698 70.2753 53.4977 70.2753 Z M 53.447 68.0375 H 52.4718 V 69.789 H 53.447 C 54.3894 69.789 54.8457 69.5145 54.8457 68.9147 C 54.8457 68.315 54.3894 68.0375 53.447 68.0375 Z" stroke-linecap="round"/>
</g>
		<g transform="matrix(1 0 0 1 21.2776 33.7382)">
<path style="stroke: none; stroke-width: 1; stroke-dasharray: none; stroke-linecap: butt; stroke-dashoffset: 0; stroke-linejoin: miter; stroke-miterlimit: 4; is-custom-font: none; font-file-url: none; fill: rgb(0,0,0); fill-opacity: 0; fill-rule: nonzero; opacity: 1;" transform=" translate(-60.7777, -69.7382)" d="M 62.7699 71.9254 H 62.2628 V 68.4194 L 59.197 71.9254 H 58.7854 V 67.5511 H 59.2924 V 71.0571 L 62.3583 67.5511 H 62.7699 V 71.9254 Z" stroke-linecap="round"/>
</g>
		<g transform="matrix(1 0 0 1 0.0015 -18.1044)">
<path style="stroke: none; stroke-width: 1; stroke-dasharray: none; stroke-linecap: butt; stroke-dashoffset: 0; stroke-linejoin: miter; stroke-miterlimit: 4; is-custom-font: none; font-file-url: none; fill: rgb(0,0,0); fill-opacity: 0; fill-rule: nonzero; opacity: 1;" transform=" translate(-39.5015, -17.8956)" d="M 43.8677 35.7911 C 42.1349 35.7911 40.596 35.1496 39.5015 34.2395 C 38.407 35.1526 36.8681 35.7911 35.1353 35.7911 C 33.1222 35.7911 31.9859 34.9616 30.8854 34.159 C 29.5463 33.1803 28.2818 32.2583 25.198 32.8908 C 25.0102 32.9326 24.8103 32.87 24.6731 32.7327 C 24.536 32.5954 24.4763 32.3985 24.5151 32.2075 C 25.1503 29.1252 24.2258 27.8571 23.2476 26.5174 C 22.4453 25.4163 21.6162 24.2795 21.6162 22.2654 C 21.6162 20.5288 22.2574 18.9921 23.17 17.8941 C 22.2574 16.799 21.6162 15.2593 21.6162 13.5257 C 21.6162 11.5116 22.4453 10.3748 23.2476 9.27377 C 24.2258 7.93104 25.1503 6.66589 24.5151 3.58359 C 24.4763 3.39262 24.536 3.19569 24.6731 3.05843 C 24.8103 2.92118 25.0102 2.85852 25.198 2.90029 C 28.2788 3.53286 29.5463 2.61086 30.8854 1.63216 C 31.9859 0.829507 33.1222 0 35.1353 0 C 36.871 0 38.407 0.641524 39.5015 1.55159 C 40.596 0.63854 42.1349 0 43.8677 0 C 45.8808 0 47.0171 0.829507 48.1176 1.63216 C 49.4566 2.61086 50.7241 3.53286 53.8049 2.90029 C 53.9988 2.85852 54.1926 2.92118 54.3298 3.05843 C 54.467 3.19569 54.5267 3.39561 54.4879 3.58359 C 53.8526 6.66589 54.7772 7.93402 55.7554 9.27377 C 56.5577 10.3718 57.3868 11.5116 57.3868 13.5257 C 57.3868 15.2623 56.7456 16.799 55.8359 17.8941 C 56.7485 18.9891 57.3868 20.5288 57.3868 22.2654 C 57.3868 24.2795 56.5577 25.4163 55.7554 26.5174 C 54.7772 27.8601 53.8526 29.1252 54.4879 32.2075 C 54.5267 32.3985 54.467 32.5954 54.3298 32.7327 C 54.1926 32.87 53.9958 32.9326 53.8049 32.8908 C 50.7212 32.2583 49.4566 33.1803 48.1176 34.159 C 47.0171 34.9616 45.8808 35.7911 43.8677 35.7911 Z M 40.3216 33.4041 C 41.1955 34.1053 42.4332 34.6334 43.8677 34.6334 C 45.505 34.6334 46.3997 33.9799 47.4346 33.222 C 48.7379 32.2702 50.1992 31.205 53.2114 31.6138 C 52.8029 28.6001 53.8676 27.135 54.8189 25.8311 C 55.5765 24.7927 56.2296 23.8976 56.2296 22.2624 C 56.2296 20.8272 55.7017 19.5889 55.0009 18.7146 C 54.2851 19.2845 53.4918 19.6098 52.7372 19.6098 C 51.7173 19.6098 51.0045 18.9056 51.0045 17.8941 C 51.0045 16.8825 51.7173 16.1784 52.7372 16.1784 C 53.4888 16.1784 54.2851 16.5036 55.0009 17.0735 C 55.7047 16.1992 56.2296 14.961 56.2296 13.5257 C 56.2296 11.8876 55.5765 10.9925 54.8189 9.95707 C 53.8676 8.65313 52.8029 7.19105 53.2114 4.17439 C 50.1963 4.58317 48.7349 3.51794 47.4346 2.5661 C 46.3967 1.8082 45.502 1.15474 43.8677 1.15474 C 42.4332 1.15474 41.1955 1.68288 40.3216 2.38408 C 40.8913 3.1002 41.2163 3.89391 41.2163 4.64882 C 41.2163 5.66929 40.5125 6.38243 39.5015 6.38243 C 38.4905 6.38243 37.7866 5.66929 37.7866 4.64882 C 37.7866 3.89689 38.1117 3.1002 38.6813 2.38408 C 37.8075 1.68288 36.5698 1.15474 35.1353 1.15474 C 33.498 1.15474 32.6033 1.8082 31.5684 2.5661 C 30.2651 3.51794 28.8007 4.58019 25.7915 4.17439 C 26.2001 7.19105 25.1354 8.65313 24.184 9.95707 C 23.4265 10.9954 22.7764 11.8906 22.7764 13.5257 C 22.7764 14.961 23.3042 16.1992 24.0051 17.0735 C 24.7209 16.5036 25.5142 16.1784 26.2687 16.1784 C 27.2887 16.1784 28.0015 16.8825 28.0015 17.8941 V 17.8971 C 28.0015 18.9056 27.2887 19.6128 26.2687 19.6128 C 25.5172 19.6128 24.7209 19.2875 24.0051 18.7176 C 23.3042 19.5919 22.7764 20.8302 22.7764 22.2654 C 22.7764 23.9035 23.4295 24.7987 24.184 25.8341 C 25.1324 27.138 26.2001 28.6001 25.7915 31.6167 C 28.8037 31.205 30.2681 32.2732 31.5684 33.225 C 32.6063 33.9829 33.501 34.6364 35.1353 34.6364 C 36.5698 34.6364 37.8075 34.1082 38.6843 33.407 C 38.1147 32.6909 37.7896 31.8942 37.7896 31.1423 C 37.7896 30.1218 38.4934 29.4087 39.5045 29.4087 C 40.5155 29.4087 41.2193 30.1218 41.2193 31.1423 C 41.2163 31.8913 40.8913 32.6879 40.3216 33.4041 Z M 39.5015 30.5634 C 39.0392 30.5634 38.9438 30.8767 38.9438 31.1393 C 38.9438 31.575 39.1436 32.0762 39.5015 32.5626 C 39.8624 32.0792 40.0592 31.575 40.0592 31.1393 C 40.0592 30.8767 39.9638 30.5634 39.5015 30.5634 Z M 52.7372 17.3361 C 52.4748 17.3361 52.1616 17.4346 52.1616 17.8941 C 52.1616 18.3566 52.4748 18.455 52.7372 18.455 C 53.1727 18.455 53.6737 18.2551 54.1598 17.8971 C 53.6737 17.536 53.1727 17.3361 52.7372 17.3361 Z M 24.8431 17.8941 C 25.3263 18.2551 25.8273 18.4521 26.2627 18.4521 C 26.5252 18.4521 26.8383 18.3536 26.8383 17.8941 V 17.8911 C 26.8383 17.4316 26.5252 17.3331 26.2627 17.3331 C 25.8273 17.3361 25.3263 17.536 24.8431 17.8941 Z M 39.5015 3.22851 C 39.1406 3.71189 38.9438 4.21318 38.9438 4.6518 C 38.9438 4.91438 39.0392 5.22768 39.5015 5.22768 C 39.9638 5.22768 40.0622 4.91438 40.0622 4.6518 C 40.0592 4.21616 39.8594 3.71189 39.5015 3.22851 Z" stroke-linecap="round"/>
</g>
		<g transform="matrix(1 0 0 1 -5.7113 -18.1044)">
<path style="stroke: none; stroke-width: 1; stroke-dasharray: none; stroke-linecap: butt; stroke-dashoffset: 0; stroke-linejoin: miter; stroke-miterlimit: 4; is-custom-font: none; font-file-url: none; fill: rgb(0,0,0); fill-opacity: 0; fill-rule: nonzero; opacity: 1;" transform=" translate(-33.7887, -17.8956)" d="M 34.9175 20.7675 V 13.3616 C 34.9205 12.926 35.1353 12.5441 35.4603 12.3024 C 35.687 12.1651 35.9614 12.0696 36.2686 12.0696 H 36.3401 V 11.64 H 31.6578 V 12.0696 H 32.0634 C 32.3706 12.0696 32.645 12.1651 32.8716 12.3024 C 33.1997 12.55 33.4144 12.929 33.4144 13.3706 V 21.051 C 33.4144 22.0565 32.3139 23.6409 31.2492 23.814 H 31.2373 V 24.1512 C 31.801 24.1512 34.7804 23.4082 34.9175 20.7675 Z" stroke-linecap="round"/>
</g>
		<g transform="matrix(1 0 0 1 2.5067 -18.5893)">
<path style="stroke: none; stroke-width: 1; stroke-dasharray: none; stroke-linecap: butt; stroke-dashoffset: 0; stroke-linejoin: miter; stroke-miterlimit: 4; is-custom-font: none; font-file-url: none; fill: rgb(0,0,0); fill-opacity: 0; fill-rule: nonzero; opacity: 1;" transform=" translate(-42.0067, -17.4107)" d="M 38.0133 13.3676 V 21.4568 C 38.0133 22.1998 37.4019 22.7965 36.6623 22.7965 H 36.2448 V 23.1814 H 41.2671 V 22.7965 H 40.8495 C 40.1278 22.7965 39.5313 22.2236 39.5104 21.5015 V 17.9717 H 40.7422 C 41.1537 17.9717 41.5056 18.1775 41.7323 18.5267 L 43.7365 21.5135 C 44.4343 22.5489 45.6034 23.1814 46.865 23.1814 H 47.7686 V 22.7965 C 46.6294 22.7965 45.5259 21.3762 45.335 21.1166 C 45.3111 21.0838 45.3022 21.0719 45.3022 21.0719 L 43.7901 18.8191 L 43.2175 17.9717 L 43.1161 17.8165 C 43.4651 17.7807 44.0079 17.5301 44.0645 17.4883 C 44.9652 16.9333 45.5617 15.9307 45.5617 14.8058 C 45.5617 13.666 44.9652 12.6634 44.0645 12.1144 C 44.0079 12.0666 43.9512 12.0458 43.8826 12.0099 C 43.4412 11.7742 42.9372 11.64 42.3974 11.64 H 36.6354 V 12.0666 C 37.6047 12.0696 38.0133 12.747 38.0133 13.3676 Z M 39.5075 12.6783 C 39.5075 12.3054 39.7997 12.0129 40.1725 12.0129 H 41.2671 C 42.8089 12.0129 44.0615 13.2632 44.0615 14.8088 C 44.0615 15.7427 43.5993 16.5633 42.8895 17.0735 C 42.4719 17.3779 41.9649 17.5569 41.4251 17.5897 H 39.5104 V 12.6783 H 39.5075 Z" stroke-linecap="round"/>
</g>
		<g transform="matrix(1 0 0 1 20.3681 18.4699)">
<path style="stroke: none; stroke-width: 1; stroke-dasharray: none; stroke-linecap: butt; stroke-dashoffset: 0; stroke-linejoin: miter; stroke-miterlimit: 4; is-custom-font: none; font-file-url: none; fill: rgb(0,0,0); fill-opacity: 0; fill-rule: nonzero; opacity: 1;" transform=" translate(-59.8681, -54.4699)" d="M 62.2987 48.6514 V 49.0751 H 62.8087 C 63.2441 49.0751 63.5215 49.5436 63.3067 49.9255 L 60.8075 54.3923 C 60.6763 54.6281 60.3393 54.6281 60.2081 54.3923 L 57.7088 49.9255 C 57.4971 49.5436 57.7715 49.0751 58.2069 49.0751 H 58.7169 V 48.6514 H 53.3635 V 49.0751 H 54.0316 C 54.6519 49.0751 55.2245 49.4093 55.5257 49.9524 L 58.6364 55.5172 C 58.8153 55.8395 58.9107 56.2035 58.9107 56.5705 V 58.5488 C 58.9107 59.2739 58.3232 59.8647 57.5955 59.8647 H 57.1899 V 60.2884 H 62.5433 V 59.8647 H 62.1377 C 61.4129 59.8647 60.8224 59.2769 60.8224 58.5488 V 56.7317 C 60.8224 56.2572 60.9447 55.7888 61.1773 55.374 L 64.2104 49.9524 C 64.5146 49.4093 65.0842 49.0751 65.7046 49.0751 H 66.3726 V 48.6514 H 62.2987 Z" stroke-linecap="round"/>
</g>
		<g transform="matrix(1 0 0 1 1.8059 18.4684)">
<path style="stroke: none; stroke-width: 1; stroke-dasharray: none; stroke-linecap: butt; stroke-dashoffset: 0; stroke-linejoin: miter; stroke-miterlimit: 4; is-custom-font: none; font-file-url: none; fill: rgb(0,0,0); fill-opacity: 0; fill-rule: nonzero; opacity: 1;" transform=" translate(-41.3059, -54.4684)" d="M 36.4714 48.6514 V 49.0751 H 36.877 C 37.6018 49.0751 38.1923 49.6629 38.1923 50.391 V 58.5518 C 38.1923 59.2769 37.6047 59.8677 36.877 59.8677 H 36.4714 V 60.2914 H 41.8248 V 59.8677 H 41.4192 C 40.6945 59.8677 40.104 59.2798 40.104 58.5518 V 55.6784 V 55.1114 V 54.6877 V 54.1566 V 49.6928 C 40.104 49.3526 40.3783 49.0751 40.7213 49.0751 H 41.4192 C 42.967 49.0751 44.2226 50.3313 44.2226 51.8799 C 44.2226 53.4285 42.967 54.6847 41.4192 54.6847 H 39.8236 V 55.1084 H 42.9104 C 44.6938 55.1084 46.1403 53.6613 46.1403 51.8769 C 46.1403 50.0926 44.6938 48.6454 42.9104 48.6454 H 36.4714 V 48.6514 Z" stroke-linecap="round"/>
</g>
		<g transform="matrix(1 0 0 1 -25.5455 21.2613)">
<path style="stroke: none; stroke-width: 1; stroke-dasharray: none; stroke-linecap: butt; stroke-dashoffset: 0; stroke-linejoin: miter; stroke-miterlimit: 4; is-custom-font: none; font-file-url: none; fill: rgb(0,0,0); fill-opacity: 0; fill-rule: nonzero; opacity: 1;" transform=" translate(-13.9545, -57.2613)" d="M 16.2599 58.8979 L 14.1424 55.3979 C 13.6086 54.5475 13.2328 54.2342 11.8281 54.2342 H 11.2495 H 9.93428 L 9.89551 54.6579 H 10.8797 C 11.2197 54.6579 11.503 54.831 11.6581 55.0906 L 12.5379 56.5467 L 13.9128 58.8203 C 14.4585 59.7095 15.4397 60.2884 16.6088 60.2884 H 17.9747 L 18.0135 59.8647 C 17.25 59.8647 16.6118 59.4828 16.2599 58.8979 Z" stroke-linecap="round"/>
</g>
		<g transform="matrix(1 0 0 1 -26.1137 15.6577)">
<path style="stroke: none; stroke-width: 1; stroke-dasharray: none; stroke-linecap: butt; stroke-dashoffset: 0; stroke-linejoin: miter; stroke-miterlimit: 4; is-custom-font: none; font-file-url: none; fill: rgb(0,0,0); fill-opacity: 0; fill-rule: nonzero; opacity: 1;" transform=" translate(-13.3864, -51.6577)" d="M 15.5889 50.021 L 13.6861 53.5211 C 13.203 54.3715 12.8481 54.6848 11.4434 54.6848 H 10.8648 H 9.54957 L 9.48694 54.2611 H 10.4711 C 10.8111 54.2611 11.0825 54.088 11.2227 53.8284 L 12.016 52.3723 L 13.2507 50.0986 C 13.7428 49.2094 14.6882 48.6306 15.8573 48.6306 H 17.2232 L 17.2858 49.0543 C 16.5194 49.0513 15.902 49.4362 15.5889 50.021 Z" stroke-linecap="round"/>
</g>
		<g transform="matrix(1 0 0 1 -35.441 21.2613)">
<path style="stroke: none; stroke-width: 1; stroke-dasharray: none; stroke-linecap: butt; stroke-dashoffset: 0; stroke-linejoin: miter; stroke-miterlimit: 4; is-custom-font: none; font-file-url: none; fill: rgb(0,0,0); fill-opacity: 0; fill-rule: nonzero; opacity: 1;" transform=" translate(-4.059, -57.2613)" d="M 1.75364 58.8979 L 3.87111 55.3979 C 4.40495 54.5475 4.78074 54.2342 6.18543 54.2342 H 6.76401 H 8.07924 L 8.11801 54.6579 H 7.13382 C 6.79383 54.6579 6.51051 54.831 6.35543 55.0906 L 5.47563 56.5467 L 4.10076 58.8203 C 3.55499 59.7095 2.57378 60.2884 1.40469 60.2884 H 0.0387723 L 0 59.8647 C 0.766469 59.8647 1.4047 59.4828 1.75364 58.8979 Z" stroke-linecap="round"/>
</g>
		<g transform="matrix(1 0 0 1 -34.8698 15.6577)">
<path style="stroke: none; stroke-width: 1; stroke-dasharray: none; stroke-linecap: butt; stroke-dashoffset: 0; stroke-linejoin: miter; stroke-miterlimit: 4; is-custom-font: none; font-file-url: none; fill: rgb(0,0,0); fill-opacity: 0; fill-rule: nonzero; opacity: 1;" transform=" translate(-4.6302, -51.6577)" d="M 2.42768 50.021 L 4.33044 53.5211 C 4.81358 54.3715 5.16848 54.6848 6.57317 54.6848 H 7.15175 H 8.46698 L 8.52962 54.2611 H 7.54543 C 7.20544 54.2611 6.93405 54.088 6.79388 53.8284 L 6.00056 52.3723 L 4.76586 50.0986 C 4.27377 49.2094 3.32836 48.6306 2.15927 48.6306 H 0.793349 L 0.730713 49.0543 C 1.49718 49.0513 2.11155 49.4362 2.42768 50.021 Z" stroke-linecap="round"/>
</g>
		<g transform="matrix(1 0 0 1 -30.4947 18.4714)">
<path style="stroke: none; stroke-width: 1; stroke-dasharray: none; stroke-linecap: butt; stroke-dashoffset: 0; stroke-linejoin: miter; stroke-miterlimit: 4; is-custom-font: none; font-file-url: none; fill: rgb(0,0,0); fill-opacity: 0; fill-rule: nonzero; opacity: 1;" transform=" translate(-9.0053, -54.4714)" d="M 8.04944 58.5518 C 8.04944 59.2769 7.46191 59.8677 6.73421 59.8677 H 6.32861 V 60.2914 H 11.682 V 59.8677 H 11.2764 C 10.5516 59.8677 9.96114 59.2799 9.96114 58.5518 V 50.391 C 9.96114 49.6659 10.5487 49.0751 11.2764 49.0751 H 11.682 V 48.6514 H 6.33159 V 49.0751 H 6.7372 C 7.46191 49.0751 8.05242 49.6629 8.05242 50.391 L 8.04944 58.5518 Z" stroke-linecap="round"/>
</g>
		<g transform="matrix(1 0 0 1 -12.4888 18.4699)">
<path style="stroke: none; stroke-width: 1; stroke-dasharray: none; stroke-linecap: butt; stroke-dashoffset: 0; stroke-linejoin: miter; stroke-miterlimit: 4; is-custom-font: none; font-file-url: none; fill: rgb(0,0,0); fill-opacity: 0; fill-rule: nonzero; opacity: 1;" transform=" translate(-27.0112, -54.4699)" d="M 29.4419 48.6514 V 49.0751 H 29.9519 C 30.3873 49.0751 30.6647 49.5436 30.4499 49.9255 L 27.9507 54.3923 C 27.8195 54.6281 27.4825 54.6281 27.3513 54.3923 L 24.852 49.9255 C 24.6403 49.5436 24.9147 49.0751 25.3501 49.0751 H 25.8601 V 48.6514 H 20.5067 V 49.0751 H 21.1748 C 21.7951 49.0751 22.3677 49.4093 22.6689 49.9524 L 25.7796 55.5172 C 25.9585 55.8395 26.0539 56.2035 26.0539 56.5705 V 58.5488 C 26.0539 59.2739 25.4664 59.8647 24.7387 59.8647 H 24.3331 V 60.2884 H 29.6864 V 59.8647 H 29.2808 C 28.5561 59.8647 27.9656 59.2769 27.9656 58.5488 V 56.7317 C 27.9656 56.2572 28.0879 55.7888 28.3205 55.374 L 31.3536 49.9524 C 31.6578 49.4093 32.2274 49.0751 32.8478 49.0751 H 33.5158 V 48.6514 H 29.4419 Z" stroke-linecap="round"/>
</g>
		<g transform="matrix(1 0 0 1 34.6656 18.4684)">
<path style="stroke: none; stroke-width: 1; stroke-dasharray: none; stroke-linecap: butt; stroke-dashoffset: 0; stroke-linejoin: miter; stroke-miterlimit: 4; is-custom-font: none; font-file-url: none; fill: rgb(0,0,0); fill-opacity: 0; fill-rule: nonzero; opacity: 1;" transform=" translate(-74.1656, -54.4684)" d="M 69.3312 48.6514 V 49.0751 H 69.7368 C 70.4615 49.0751 71.052 49.6629 71.052 50.391 V 58.5518 C 71.052 59.2769 70.4645 59.8677 69.7368 59.8677 H 69.3312 V 60.2914 H 74.6845 V 59.8677 H 74.2789 C 73.5542 59.8677 72.9637 59.2798 72.9637 58.5518 V 55.6784 V 55.1114 V 54.6877 V 54.1566 V 49.6928 C 72.9637 49.3526 73.2381 49.0751 73.5811 49.0751 H 74.2789 C 75.8268 49.0751 77.0824 50.3313 77.0824 51.8799 C 77.0824 53.4285 75.8268 54.6847 74.2789 54.6847 H 72.6834 V 55.1084 H 75.7701 C 77.5536 55.1084 79 53.6613 79 51.8769 C 79 50.0926 77.5536 48.6454 75.7701 48.6454 H 69.3312 V 48.6514 Z" stroke-linecap="round"/>
</g>
</g>
</g>
</svg>