<svg width="202" height="201" viewBox="0 0 202 201" fill="none" xmlns="http://www.w3.org/2000/svg">
<g filter="url(#filter0_i_356_3055)">
<path d="M41.9995 64.8787L199.5 110.147L116 20.6162L41.9995 64.8787Z" fill="white"/>
</g>
<path d="M41.9995 64.8787L199.5 110.147L116 20.6162L41.9995 64.8787Z" stroke="white"/>
<g filter="url(#filter1_i_356_3055)">
<path d="M41.9995 98.0758V73.9326L200 120.71V146.865L41.9995 98.0758Z" fill="white"/>
</g>
<path d="M41.9995 98.0758V73.9326L200 120.71V146.865L41.9995 98.0758Z" stroke="white"/>
<g filter="url(#filter2_i_356_3055)">
<path d="M32.4994 60.352L109.999 13.0716L98.4994 1L12.4994 50.7953L10.9994 110.65L199.499 166.984V155.919L32.4994 104.112V60.352Z" fill="white"/>
</g>
<path d="M32.4994 60.352L109.999 13.0716L98.4994 1L12.4994 50.7953L10.9994 110.65L199.499 166.984V155.919L32.4994 104.112V60.352Z" stroke="white"/>
<path d="M15.6293 122.894L10.3569 142.688L8.41075 142.163L13.6831 122.369L8.52355 120.978L9.01821 119.121L21.2836 122.427L20.7889 124.285L15.6293 122.894ZM26.4693 147.031L29.4856 135.707C29.5848 135.335 29.6069 134.968 29.5519 134.608C29.4995 134.238 29.3849 133.9 29.2078 133.593C29.0308 133.287 28.7951 133.018 28.5007 132.788C28.2164 132.56 27.8882 132.396 27.516 132.296L26.2789 131.962C25.9068 131.862 25.536 131.838 25.1666 131.889C24.8072 131.943 24.4746 132.059 24.1689 132.235C23.8632 132.412 23.5957 132.647 23.3664 132.941C23.1398 133.225 22.9769 133.554 22.8777 133.926L19.8614 145.25L18.0058 144.75L23.7728 123.098L25.6285 123.599L23.6338 131.087C24.1902 130.698 24.8027 130.442 25.4712 130.321C26.1397 130.199 26.8209 130.231 27.5149 130.418L27.9825 130.544C28.6061 130.712 29.1623 130.992 29.6512 131.382C30.1427 131.763 30.5396 132.215 30.8421 132.739C31.1445 133.263 31.3377 133.833 31.4215 134.449C31.5155 135.068 31.4793 135.689 31.3131 136.313L28.325 147.531L26.4693 147.031ZM43.4856 147.07C43.3193 147.695 43.0418 148.251 42.653 148.739C42.2742 149.231 41.8236 149.627 41.3013 149.929C40.779 150.23 40.2091 150.427 39.5916 150.52C38.9768 150.602 38.3576 150.559 37.734 150.391L36.4969 150.058C35.8733 149.89 35.3158 149.615 34.8243 149.235C34.3354 148.844 33.9398 148.387 33.6374 147.863C33.3349 147.339 33.1367 146.768 33.0428 146.149C32.959 145.533 33.0001 144.913 33.1664 144.289L35.0244 137.313C35.1906 136.689 35.4631 136.132 35.8419 135.64C36.2307 135.152 36.6863 134.757 37.2086 134.455C37.7309 134.154 38.2995 133.962 38.9143 133.879C39.5318 133.787 40.1524 133.825 40.7759 133.993L42.013 134.326C42.6366 134.494 43.1928 134.774 43.6816 135.164C44.1732 135.545 44.5701 135.997 44.8726 136.521C45.175 137.045 45.3682 137.615 45.452 138.231C45.5459 138.849 45.5098 139.471 45.3436 140.095L44.3743 143.734L35.9108 141.452L34.9939 144.895C34.8947 145.267 34.8712 145.639 34.9236 146.009C34.9786 146.369 35.0946 146.702 35.2716 147.009C35.4487 147.315 35.6793 147.583 35.9637 147.81C36.258 148.041 36.5913 148.206 36.9634 148.306L38.2005 148.64C38.5726 148.74 38.9384 148.763 39.2978 148.709C39.6672 148.657 40.0048 148.543 40.3105 148.367C40.6163 148.19 40.8824 147.96 41.109 147.676C41.3383 147.382 41.5026 147.048 41.6018 146.676L41.8752 145.649L43.6504 146.451L43.4856 147.07ZM43.5161 139.489C43.6153 139.117 43.6374 138.75 43.5824 138.39C43.53 138.02 43.4153 137.682 43.2383 137.375C43.0613 137.069 42.8256 136.8 42.5312 136.57C42.2469 136.342 41.9187 136.178 41.5465 136.078L40.3094 135.744C39.9373 135.644 39.5665 135.619 39.1971 135.671C38.8377 135.725 38.5051 135.84 38.1994 136.017C37.8937 136.193 37.6262 136.429 37.3969 136.723C37.1703 137.007 37.0074 137.335 36.9082 137.708L36.2969 140.003L42.9048 141.784L43.5161 139.489ZM66.9994 152.583C66.8037 153.318 66.4792 153.97 66.026 154.538C65.5828 155.109 65.0555 155.571 64.4441 155.924C63.8326 156.277 63.1675 156.508 62.4487 156.616C61.7326 156.714 61.0075 156.664 60.2733 156.467L58.7345 156.052C58.0003 155.854 57.3425 155.531 56.7611 155.083C56.1925 154.628 55.7311 154.093 55.3771 153.48C55.023 152.867 54.7909 152.2 54.6809 151.48C54.5809 150.762 54.6288 150.036 54.8245 149.302L57.9212 137.676C58.1169 136.941 58.4364 136.288 58.8795 135.717C59.3327 135.149 59.8651 134.688 60.4765 134.335C61.088 133.982 61.7518 133.756 62.4678 133.658C63.1967 133.552 63.9282 133.599 64.6624 133.796L66.2012 134.211C66.9354 134.409 67.5868 134.736 68.1555 135.191C68.7268 135.636 69.1895 136.166 69.5435 136.779C69.8976 137.392 70.1246 138.058 70.2246 138.775C70.3346 139.495 70.2918 140.223 70.0961 140.957L69.8628 141.833L67.8362 141.61L68.1499 140.433C68.2786 139.95 68.3074 139.477 68.2363 139.016C68.1678 138.544 68.0193 138.11 67.7906 137.714C67.5619 137.318 67.2605 136.973 66.8863 136.678C66.5222 136.385 66.0988 136.174 65.616 136.044L64.2582 135.678C63.7755 135.548 63.2987 135.516 62.8281 135.584C62.3674 135.654 61.9346 135.801 61.5297 136.027C61.1348 136.255 60.7905 136.556 60.4969 136.93C60.2059 137.294 59.9961 137.717 59.8674 138.2L56.7707 149.826C56.642 150.309 56.6119 150.787 56.6803 151.258C56.7514 151.72 56.9 152.154 57.126 152.56C57.3647 152.958 57.6661 153.304 58.0302 153.596C58.4044 153.891 58.8329 154.104 59.3156 154.234L60.6734 154.6C61.1562 154.73 61.6279 154.76 62.0885 154.69C62.5592 154.623 62.992 154.475 63.3869 154.247C63.7845 154.009 64.1287 153.708 64.4197 153.344C64.7134 152.97 64.9245 152.542 65.0532 152.059L65.3669 150.881L67.2286 151.723L66.9994 152.583ZM79.0912 161.215L78.4755 159.399C77.9057 159.838 77.2583 160.144 76.5335 160.315C75.8114 160.477 75.0732 160.456 74.3189 160.252L73.8512 160.126C73.2276 159.958 72.6701 159.684 72.1786 159.303C71.6897 158.913 71.2941 158.455 70.9917 157.932C70.6892 157.408 70.491 156.836 70.3971 156.218C70.3132 155.602 70.3544 154.982 70.5206 154.358L70.5609 154.207C70.7271 153.583 70.9996 153.025 71.3784 152.534C71.7672 152.045 72.2228 151.65 72.7451 151.349C73.2674 151.047 73.836 150.855 74.4508 150.773C75.0683 150.68 75.6889 150.718 76.3124 150.886L80.2349 151.943L80.8704 149.558C80.9696 149.185 80.9917 148.819 80.9366 148.459C80.8843 148.089 80.7696 147.751 80.5926 147.444C80.4155 147.137 80.1798 146.869 79.8855 146.638C79.6012 146.411 79.2729 146.247 78.9008 146.146L77.8146 145.854C77.4424 145.753 77.0717 145.729 76.7022 145.78C76.3428 145.835 76.0103 145.95 75.7045 146.126C75.3988 146.303 75.1313 146.538 74.902 146.832C74.6754 147.117 74.5125 147.445 74.4133 147.817L74.2645 148.376L72.4893 147.574L72.5295 147.423C72.6957 146.799 72.9683 146.241 73.347 145.75C73.7359 145.261 74.1915 144.866 74.7137 144.565C75.236 144.263 75.8046 144.071 76.4194 143.989C77.037 143.896 77.6575 143.934 78.2811 144.102L79.3673 144.395C79.9909 144.563 80.5471 144.842 81.0359 145.233C81.5274 145.614 81.9244 146.066 82.2268 146.59C82.5293 147.114 82.7224 147.684 82.8063 148.3C82.9002 148.918 82.8641 149.54 82.6979 150.164L79.7098 161.382L79.0912 161.215ZM79.8489 153.393L75.9264 152.336C75.5542 152.235 75.1834 152.211 74.814 152.262C74.4546 152.316 74.1207 152.437 73.8123 152.623C73.5066 152.8 73.2391 153.035 73.0098 153.329C72.7832 153.614 72.6203 153.942 72.5211 154.314L72.3481 154.964C72.2489 155.336 72.2255 155.707 72.2778 156.077C72.3329 156.437 72.4489 156.771 72.6259 157.077C72.803 157.384 73.0336 157.651 73.3179 157.879C73.6123 158.109 73.9456 158.275 74.3177 158.375L75.5548 158.708C75.9269 158.809 76.2927 158.832 76.6521 158.778C77.0215 158.726 77.3591 158.612 77.6648 158.436C77.9706 158.259 78.2367 158.029 78.4633 157.745C78.6926 157.45 78.8568 157.117 78.956 156.745L79.8489 153.393ZM92.5635 164.847L88.3164 155.416L96.6817 149.386L99.0955 150.036L90.5794 156.026L94.9773 165.497L92.5635 164.847ZM84.0396 162.549L89.8067 140.898L91.6623 141.398L85.8952 163.049L84.0396 162.549ZM108.901 164.703C108.735 165.327 108.457 165.883 108.068 166.372C107.689 166.863 107.239 167.26 106.717 167.561C106.194 167.863 105.624 168.06 105.007 168.152C104.392 168.235 103.773 168.192 103.149 168.024L101.912 167.69C101.289 167.522 100.731 167.248 100.24 166.867C99.7507 166.476 99.3551 166.019 99.0526 165.495C98.7502 164.971 98.552 164.4 98.4581 163.782C98.3742 163.166 98.4154 162.546 98.5816 161.921L100.44 154.946C100.606 154.322 100.878 153.764 101.257 153.273C101.646 152.784 102.102 152.389 102.624 152.088C103.146 151.786 103.715 151.594 104.33 151.512C104.947 151.419 105.568 151.457 106.191 151.625L107.428 151.959C108.052 152.127 108.608 152.406 109.097 152.797C109.588 153.178 109.985 153.63 110.288 154.154C110.59 154.677 110.783 155.247 110.867 155.863C110.961 156.482 110.925 157.103 110.759 157.727L109.79 161.366L101.326 159.085L100.409 162.527C100.31 162.9 100.286 163.271 100.339 163.641C100.394 164.001 100.51 164.335 100.687 164.641C100.864 164.948 101.095 165.215 101.379 165.443C101.673 165.673 102.007 165.838 102.379 165.939L103.616 166.272C103.988 166.373 104.354 166.396 104.713 166.341C105.082 166.29 105.42 166.176 105.726 165.999C106.032 165.823 106.298 165.593 106.524 165.308C106.754 165.014 106.918 164.681 107.017 164.309L107.29 163.282L109.066 164.084L108.901 164.703ZM108.931 157.122C109.031 156.749 109.053 156.383 108.998 156.023C108.945 155.653 108.831 155.314 108.654 155.008C108.477 154.701 108.241 154.433 107.946 154.202C107.662 153.974 107.334 153.811 106.962 153.71L105.725 153.377C105.353 153.276 104.982 153.252 104.612 153.303C104.253 153.358 103.92 153.473 103.615 153.649C103.309 153.826 103.041 154.061 102.812 154.356C102.586 154.64 102.423 154.968 102.323 155.34L101.712 157.635L108.32 159.417L108.931 157.122ZM129.45 174.789L132.084 164.9L123.802 162.667L121.168 172.557L119.221 172.032L124.988 150.381L126.935 150.905L124.296 160.81L132.579 163.043L135.217 153.138L137.163 153.663L131.396 175.314L129.45 174.789ZM146.889 174.943C146.723 175.567 146.445 176.123 146.056 176.611C145.677 177.103 145.227 177.499 144.705 177.801C144.182 178.102 143.612 178.299 142.995 178.392C142.38 178.474 141.761 178.431 141.137 178.263L139.9 177.93C139.276 177.762 138.719 177.487 138.227 177.107C137.739 176.716 137.343 176.259 137.041 175.735C136.738 175.211 136.54 174.64 136.446 174.021C136.362 173.405 136.403 172.785 136.57 172.161L138.428 165.186C138.594 164.561 138.866 164.004 139.245 163.513C139.634 163.024 140.089 162.629 140.612 162.327C141.134 162.026 141.703 161.834 142.317 161.751C142.935 161.659 143.556 161.697 144.179 161.865L145.416 162.198C146.04 162.366 146.596 162.646 147.085 163.036C147.576 163.417 147.973 163.869 148.276 164.393C148.578 164.917 148.771 165.487 148.855 166.103C148.949 166.722 148.913 167.343 148.747 167.967L146.889 174.943ZM146.919 167.361C147.018 166.989 147.041 166.622 146.986 166.262C146.933 165.892 146.819 165.554 146.641 165.247C146.464 164.941 146.229 164.672 145.934 164.442C145.65 164.214 145.322 164.05 144.95 163.95L143.713 163.616C143.34 163.516 142.97 163.492 142.6 163.543C142.241 163.597 141.908 163.713 141.603 163.889C141.297 164.066 141.029 164.301 140.8 164.595C140.573 164.879 140.411 165.208 140.311 165.58L138.397 172.767C138.298 173.139 138.274 173.511 138.327 173.881C138.382 174.241 138.498 174.574 138.675 174.881C138.852 175.187 139.083 175.455 139.367 175.682C139.661 175.913 139.994 176.078 140.367 176.178L141.604 176.512C141.976 176.612 142.342 176.635 142.701 176.581C143.07 176.53 143.408 176.416 143.714 176.239C144.019 176.063 144.286 175.832 144.512 175.548C144.741 175.254 144.906 174.921 145.005 174.548L146.919 167.361ZM159.171 182.8L158.563 180.954C157.988 181.414 157.338 181.729 156.613 181.901C155.891 182.062 155.153 182.041 154.398 181.838L153.931 181.712C153.307 181.544 152.749 181.269 152.258 180.889C151.769 180.498 151.373 180.041 151.071 179.517C150.769 178.993 150.57 178.422 150.476 177.803C150.393 177.187 150.434 176.567 150.6 175.943L153.588 164.725L155.444 165.225L152.428 176.549C152.328 176.921 152.305 177.293 152.357 177.663C152.412 178.023 152.528 178.356 152.705 178.663C152.882 178.969 153.113 179.236 153.397 179.464C153.692 179.695 154.025 179.86 154.397 179.96L155.634 180.294C156.006 180.394 156.372 180.417 156.731 180.363C157.101 180.311 157.438 180.197 157.744 180.021C158.05 179.844 158.316 179.614 158.543 179.33C158.772 179.036 158.936 178.702 159.035 178.33L162.052 167.006L163.907 167.506L159.789 182.967L159.171 182.8ZM175.167 182.905C175.001 183.529 174.722 184.069 174.331 184.524C173.943 184.97 173.483 185.321 172.952 185.576C172.42 185.832 171.839 185.989 171.21 186.046C170.593 186.095 169.973 186.036 169.349 185.868L168.112 185.534C167.488 185.366 166.921 185.089 166.409 184.703C165.91 184.31 165.5 183.848 165.177 183.319C164.864 182.792 164.651 182.217 164.537 181.593C164.433 180.972 164.464 180.349 164.631 179.725L164.795 179.106L166.731 179.304L166.458 180.331C166.359 180.703 166.34 181.076 166.403 181.449C166.478 181.814 166.614 182.153 166.811 182.465C167.008 182.777 167.259 183.05 167.564 183.283C167.868 183.516 168.206 183.682 168.578 183.783L169.816 184.116C170.188 184.217 170.559 184.257 170.931 184.239C171.302 184.22 171.646 184.146 171.961 184.015C172.289 183.877 172.567 183.682 172.795 183.431C173.034 183.182 173.203 182.872 173.302 182.499C173.45 181.946 173.45 181.46 173.302 181.043C173.155 180.625 172.911 180.247 172.57 179.907C172.242 179.559 171.842 179.241 171.369 178.952C170.909 178.655 170.433 178.36 169.94 178.065C169.45 177.76 168.975 177.438 168.515 177.099C168.066 176.762 167.683 176.378 167.367 175.947C167.063 175.51 166.856 175.011 166.746 174.453C166.636 173.895 166.679 173.248 166.875 172.514C167.041 171.889 167.313 171.353 167.691 170.905C168.072 170.447 168.518 170.087 169.03 169.826C169.541 169.564 170.096 169.406 170.692 169.351C171.302 169.289 171.918 169.342 172.542 169.51L173.628 169.803C174.252 169.971 174.808 170.25 175.297 170.641C175.788 171.022 176.185 171.474 176.488 171.998C176.79 172.521 176.983 173.091 177.067 173.707C177.161 174.326 177.125 174.947 176.959 175.571L176.942 175.632L175.006 175.434L175.131 174.966C175.23 174.593 175.252 174.227 175.197 173.867C175.145 173.497 175.03 173.158 174.853 172.852C174.676 172.545 174.441 172.277 174.146 172.046C173.862 171.818 173.534 171.655 173.162 171.554L172.075 171.261C171.703 171.161 171.336 171.122 170.975 171.143C170.624 171.167 170.299 171.252 170.001 171.398C169.706 171.535 169.45 171.73 169.231 171.984C169.013 172.238 168.854 172.551 168.754 172.923C168.612 173.457 168.616 173.927 168.767 174.334C168.92 174.732 169.161 175.099 169.492 175.436C169.833 175.776 170.233 176.094 170.693 176.391C171.166 176.68 171.641 176.981 172.118 177.293C172.608 177.598 173.077 177.923 173.523 178.27C173.98 178.62 174.36 179.014 174.664 179.452C174.978 179.892 175.188 180.397 175.296 180.965C175.406 181.523 175.363 182.17 175.167 182.905ZM189.131 186.329C188.965 186.953 188.687 187.509 188.298 187.998C187.92 188.489 187.469 188.885 186.947 189.187C186.425 189.489 185.855 189.686 185.237 189.778C184.622 189.86 184.003 189.818 183.379 189.65L182.142 189.316C181.519 189.148 180.961 188.874 180.47 188.493C179.981 188.102 179.585 187.645 179.283 187.121C178.98 186.597 178.782 186.026 178.688 185.407C178.604 184.791 178.646 184.171 178.812 183.547L180.67 176.572C180.836 175.948 181.109 175.39 181.487 174.899C181.876 174.41 182.332 174.015 182.854 173.714C183.376 173.412 183.945 173.22 184.56 173.138C185.177 173.045 185.798 173.083 186.421 173.251L187.659 173.585C188.282 173.753 188.838 174.032 189.327 174.423C189.819 174.803 190.216 175.256 190.518 175.779C190.821 176.303 191.014 176.873 191.098 177.489C191.191 178.108 191.155 178.729 190.989 179.353L190.02 182.992L181.556 180.711L180.639 184.153C180.54 184.526 180.517 184.897 180.569 185.267C180.624 185.627 180.74 185.96 180.917 186.267C181.094 186.574 181.325 186.841 181.609 187.069C181.904 187.299 182.237 187.464 182.609 187.565L183.846 187.898C184.218 187.998 184.584 188.021 184.943 187.967C185.313 187.916 185.65 187.802 185.956 187.625C186.262 187.449 186.528 187.219 186.755 186.934C186.984 186.64 187.148 186.307 187.247 185.934L187.521 184.908L189.296 185.71L189.131 186.329ZM189.162 178.747C189.261 178.375 189.283 178.009 189.228 177.649C189.176 177.279 189.061 176.94 188.884 176.634C188.707 176.327 188.471 176.058 188.177 175.828C187.892 175.6 187.564 175.436 187.192 175.336L185.955 175.003C185.583 174.902 185.212 174.878 184.843 174.929C184.483 174.984 184.151 175.099 183.845 175.275C183.539 175.452 183.272 175.687 183.042 175.981C182.816 176.266 182.653 176.594 182.554 176.966L181.942 179.261L188.55 181.042L189.162 178.747Z" fill="white"/>
<defs>
<filter id="filter0_i_356_3055" x="40.7542" y="19.9795" width="160.342" height="95.147" filterUnits="userSpaceOnUse" color-interpolation-filters="sRGB">
<feFlood flood-opacity="0" result="BackgroundImageFix"/>
<feBlend mode="normal" in="SourceGraphic" in2="BackgroundImageFix" result="shape"/>
<feColorMatrix in="SourceAlpha" type="matrix" values="0 0 0 0 0 0 0 0 0 0 0 0 0 0 0 0 0 0 127 0" result="hardAlpha"/>
<feOffset dy="4"/>
<feGaussianBlur stdDeviation="2"/>
<feComposite in2="hardAlpha" operator="arithmetic" k2="-1" k3="1"/>
<feColorMatrix type="matrix" values="0 0 0 0 0 0 0 0 0 0 0 0 0 0 0 0 0 0 0.25 0"/>
<feBlend mode="normal" in2="shape" result="effect1_innerShadow_356_3055"/>
</filter>
<filter id="filter1_i_356_3055" x="41.4995" y="73.2632" width="159" height="78.2798" filterUnits="userSpaceOnUse" color-interpolation-filters="sRGB">
<feFlood flood-opacity="0" result="BackgroundImageFix"/>
<feBlend mode="normal" in="SourceGraphic" in2="BackgroundImageFix" result="shape"/>
<feColorMatrix in="SourceAlpha" type="matrix" values="0 0 0 0 0 0 0 0 0 0 0 0 0 0 0 0 0 0 127 0" result="hardAlpha"/>
<feOffset dy="4"/>
<feGaussianBlur stdDeviation="2"/>
<feComposite in2="hardAlpha" operator="arithmetic" k2="-1" k3="1"/>
<feColorMatrix type="matrix" values="0 0 0 0 0 0 0 0 0 0 0 0 0 0 0 0 0 0 0.25 0"/>
<feBlend mode="normal" in2="shape" result="effect1_innerShadow_356_3055"/>
</filter>
<filter id="filter2_i_356_3055" x="10.49" y="0.370117" width="189.509" height="171.286" filterUnits="userSpaceOnUse" color-interpolation-filters="sRGB">
<feFlood flood-opacity="0" result="BackgroundImageFix"/>
<feBlend mode="normal" in="SourceGraphic" in2="BackgroundImageFix" result="shape"/>
<feColorMatrix in="SourceAlpha" type="matrix" values="0 0 0 0 0 0 0 0 0 0 0 0 0 0 0 0 0 0 127 0" result="hardAlpha"/>
<feOffset dy="4"/>
<feGaussianBlur stdDeviation="2"/>
<feComposite in2="hardAlpha" operator="arithmetic" k2="-1" k3="1"/>
<feColorMatrix type="matrix" values="0 0 0 0 0 0 0 0 0 0 0 0 0 0 0 0 0 0 0.25 0"/>
<feBlend mode="normal" in2="shape" result="effect1_innerShadow_356_3055"/>
</filter>
</defs>
</svg>
