<?xml version="1.0" encoding="UTF-8" standalone="no"?>
<!-- Created with Inkscape (http://www.inkscape.org/) -->

<svg
   xmlns:dc="http://purl.org/dc/elements/1.1/"
   xmlns:cc="http://creativecommons.org/ns#"
   xmlns:rdf="http://www.w3.org/1999/02/22-rdf-syntax-ns#"
   xmlns:svg="http://www.w3.org/2000/svg"
   xmlns="http://www.w3.org/2000/svg"
   xmlns:sodipodi="http://sodipodi.sourceforge.net/DTD/sodipodi-0.dtd"
   xmlns:inkscape="http://www.inkscape.org/namespaces/inkscape"
   width="1000"
   height="292.849"
   viewBox="0 0 264.58333 77.482967"
   version="1.1"
   id="svg2566"
   sodipodi:docname="Get it on Google Play (2016) (Print 2).svg"
   inkscape:version="0.92.2 (5c3e80d, 2017-08-06)">
  <defs
     id="defs2560">
    <linearGradient
       x1="31.7997"
       y1="183.2903"
       x2="15.0173"
       y2="166.5079"
       gradientUnits="userSpaceOnUse"
       gradientTransform="matrix(0.8,0,0,-0.8,0,161.6)"
       spreadMethod="pad"
       id="linearGradient50">
      <stop
         style="stop-opacity:1;stop-color:#00a0ff"
         offset="0"
         id="stop52" />
      <stop
         style="stop-opacity:1;stop-color:#00a1ff"
         offset="0.0066"
         id="stop54" />
      <stop
         style="stop-opacity:1;stop-color:#00beff"
         offset="0.2601"
         id="stop56" />
      <stop
         style="stop-opacity:1;stop-color:#00d2ff"
         offset="0.5122"
         id="stop58" />
      <stop
         style="stop-opacity:1;stop-color:#00dfff"
         offset="0.7604"
         id="stop60" />
      <stop
         style="stop-opacity:1;stop-color:#00e3ff"
         offset="1"
         id="stop62" />
    </linearGradient>
    <linearGradient
       x1="43.8344"
       y1="171.9986"
       x2="19.637501"
       y2="171.9986"
       gradientUnits="userSpaceOnUse"
       gradientTransform="matrix(0.8,0,0,-0.8,0,161.6)"
       spreadMethod="pad"
       id="linearGradient68">
      <stop
         style="stop-opacity:1;stop-color:#ffe000"
         offset="0"
         id="stop70" />
      <stop
         style="stop-opacity:1;stop-color:#ffbd00"
         offset="0.4087"
         id="stop72" />
      <stop
         style="stop-opacity:1;stop-color:#ffa500"
         offset="0.7754"
         id="stop74" />
      <stop
         style="stop-opacity:1;stop-color:#ff9c00"
         offset="1"
         id="stop76" />
    </linearGradient>
    <linearGradient
       x1="34.827"
       y1="169.7039"
       x2="12.0687"
       y2="146.9456"
       gradientUnits="userSpaceOnUse"
       gradientTransform="matrix(0.8,0,0,-0.8,0,161.6)"
       spreadMethod="pad"
       id="linearGradient82">
      <stop
         style="stop-opacity:1;stop-color:#ff3a44"
         offset="0"
         id="stop84" />
      <stop
         style="stop-opacity:1;stop-color:#c31162"
         offset="1"
         id="stop86" />
    </linearGradient>
    <linearGradient
       x1="17.2973"
       y1="191.82381"
       x2="27.4599"
       y2="181.6613"
       gradientUnits="userSpaceOnUse"
       gradientTransform="matrix(0.8,0,0,-0.8,0,161.6)"
       spreadMethod="pad"
       id="linearGradient92">
      <stop
         style="stop-opacity:1;stop-color:#32a071"
         offset="0"
         id="stop94" />
      <stop
         style="stop-opacity:1;stop-color:#2da771"
         offset="0.0685"
         id="stop96" />
      <stop
         style="stop-opacity:1;stop-color:#15cf74"
         offset="0.4762"
         id="stop98" />
      <stop
         style="stop-opacity:1;stop-color:#06e775"
         offset="0.8009"
         id="stop100" />
      <stop
         style="stop-opacity:1;stop-color:#00f076"
         offset="1"
         id="stop102" />
    </linearGradient>
    <mask
       maskUnits="userSpaceOnUse"
       x="0"
       y="0"
       width="1"
       height="1"
       id="mask114">
      <g
         id="g116">
        <g
           clip-path="url(#clipPath110)"
           id="g118">
          <path
             d="M 0,0 H 124 V 48 H 0 Z"
             style="fill:#000000;fill-opacity:0.2;fill-rule:nonzero;stroke:none"
             id="path120"
             inkscape:connector-curvature="0" />
        </g>
      </g>
    </mask>
    <clipPath
       clipPathUnits="userSpaceOnUse"
       id="clipPath110">
      <path
         d="M 0,0 H 124 V 48 H 0 Z"
         id="path112"
         inkscape:connector-curvature="0" />
    </clipPath>
    <clipPath
       clipPathUnits="userSpaceOnUse"
       id="clipPath126">
      <path
         d="M 0,0 H 124 V 48 H 0 Z"
         id="path128"
         inkscape:connector-curvature="0" />
    </clipPath>
  </defs>
  <sodipodi:namedview
     id="base"
     pagecolor="#ffffff"
     bordercolor="#666666"
     borderopacity="1.0"
     inkscape:pageopacity="0.0"
     inkscape:pageshadow="2"
     inkscape:zoom="0.7"
     inkscape:cx="376.28262"
     inkscape:cy="171.49272"
     inkscape:document-units="px"
     inkscape:current-layer="layer1"
     showgrid="false"
     units="px"
     inkscape:window-width="1366"
     inkscape:window-height="705"
     inkscape:window-x="-8"
     inkscape:window-y="-8"
     inkscape:window-maximized="1" />
  <metadata
     id="metadata2563">
    <rdf:RDF>
      <cc:Work
         rdf:about="">
        <dc:format>image/svg+xml</dc:format>
        <dc:type
           rdf:resource="http://purl.org/dc/dcmitype/StillImage" />
        <dc:title></dc:title>
      </cc:Work>
    </rdf:RDF>
  </metadata>
  <g
     inkscape:label="Layer 1"
     inkscape:groupmode="layer"
     id="layer1"
     transform="translate(0,-219.51703)">
    <path
       inkscape:connector-curvature="0"
       id="path16"
       style="fill:#000000;fill-opacity:1;fill-rule:nonzero;stroke:none;stroke-width:2.43555236"
       d="m 254.78396,221.06913 c 4.53707,0 8.22898,3.64898 8.22898,8.13328 v 58.11224 c 0,4.48431 -3.69191,8.13329 -8.22898,8.13329 H 9.7993718 c -4.5371458,0 -8.2290544,-3.64898 -8.2290544,-8.13329 v -58.11224 c 0,-4.4843 3.6919086,-8.13328 8.2290544,-8.13328 H 254.78396 m 0,-1.55206 H 9.7993718 C 4.4121116,219.51707 0,223.87789 0,229.20241 v 58.11224 C 0,292.63917 4.4121116,297 9.7993718,297 H 254.78396 c 5.38719,0 9.79937,-4.36083 9.79937,-9.68535 v -58.11224 c 0,-5.32452 -4.41218,-9.68534 -9.79937,-9.68534 z" />
    <path
       style="color:#000000;font-style:normal;font-variant:normal;font-weight:normal;font-stretch:normal;font-size:medium;line-height:normal;font-family:sans-serif;font-variant-ligatures:normal;font-variant-position:normal;font-variant-caps:normal;font-variant-numeric:normal;font-variant-alternates:normal;font-feature-settings:normal;text-indent:0;text-align:start;text-decoration:none;text-decoration-line:none;text-decoration-style:solid;text-decoration-color:#000000;letter-spacing:normal;word-spacing:normal;text-transform:none;writing-mode:lr-tb;direction:ltr;text-orientation:mixed;dominant-baseline:auto;baseline-shift:baseline;text-anchor:start;white-space:normal;shape-padding:0;clip-rule:nonzero;display:inline;overflow:visible;visibility:visible;opacity:1;isolation:auto;mix-blend-mode:normal;color-interpolation:sRGB;color-interpolation-filters:linearRGB;solid-color:#000000;solid-opacity:1;vector-effect:none;fill:#000000;fill-opacity:1;fill-rule:nonzero;stroke:none;stroke-width:0.38968834;stroke-linecap:butt;stroke-linejoin:miter;stroke-miterlimit:10;stroke-dasharray:none;stroke-dashoffset:0;stroke-opacity:1;color-rendering:auto;image-rendering:auto;shape-rendering:auto;text-rendering:auto;enable-background:accumulate"
       d="m 87.150391,232.62109 c -1.737227,0 -3.240353,0.60828 -4.458985,1.80469 -1.222712,1.19579 -1.839843,2.69659 -1.839844,4.46289 0,1.76633 0.616025,3.2636 1.837891,4.46875 v 0.002 h 0.002 c 1.218782,1.18718 2.72118,1.79687 4.458985,1.79687 1.812476,0 3.319188,-0.59804 4.464843,-1.7793 l 0.002,-0.002 c 1.002213,-1.00422 1.509765,-2.35995 1.509765,-4.01562 v -0.10157 l -0.01172,-0.008 c -0.005,-0.2613 -0.01817,-0.52855 -0.08008,-0.81055 L 93,238.28516 h -6.044922 v 1.78906 h 4.181641 c -0.113743,0.83765 -0.354415,1.54177 -0.839844,2.02344 -0.834578,0.82472 -1.878975,1.24023 -3.146484,1.24023 -1.187877,0 -2.201225,-0.41327 -3.078125,-1.23242 l -0.002,-0.002 c -0.86005,-0.82561 -1.289062,-1.89007 -1.289062,-3.2168 0,-1.32777 0.429077,-2.38066 1.291016,-3.20703 0.876446,-0.82818 1.88888,-1.23242 3.078125,-1.23242 1.326512,0 2.328035,0.42738 3.078125,1.30273 l 0.136718,0.16016 1.300782,-1.29688 -0.115235,-0.13672 c -0.474195,-0.56546 -1.124734,-1.0177 -1.912109,-1.34961 -0.788466,-0.32824 -1.618945,-0.50586 -2.488281,-0.50586 z"
       id="path20"
       inkscape:connector-curvature="0"
       sodipodi:nodetypes="ccscccsccsccccccccsccscsccccccc" />
    <path
       style="color:#000000;font-style:normal;font-variant:normal;font-weight:normal;font-stretch:normal;font-size:medium;line-height:normal;font-family:sans-serif;font-variant-ligatures:normal;font-variant-position:normal;font-variant-caps:normal;font-variant-numeric:normal;font-variant-alternates:normal;font-feature-settings:normal;text-indent:0;text-align:start;text-decoration:none;text-decoration-line:none;text-decoration-style:solid;text-decoration-color:#000000;letter-spacing:normal;word-spacing:normal;text-transform:none;writing-mode:lr-tb;direction:ltr;text-orientation:mixed;dominant-baseline:auto;baseline-shift:baseline;text-anchor:start;white-space:normal;shape-padding:0;clip-rule:nonzero;display:inline;overflow:visible;visibility:visible;opacity:1;isolation:auto;mix-blend-mode:normal;color-interpolation:sRGB;color-interpolation-filters:linearRGB;solid-color:#000000;solid-opacity:1;vector-effect:none;fill:#000000;fill-opacity:1;fill-rule:nonzero;stroke:none;stroke-width:0.38968834;stroke-linecap:butt;stroke-linejoin:miter;stroke-miterlimit:10;stroke-dasharray:none;stroke-dashoffset:0;stroke-opacity:1;color-rendering:auto;image-rendering:auto;shape-rendering:auto;text-rendering:auto;enable-background:accumulate"
       d="m 94.908203,232.88672 v 12.00195 h 7.251957 v -1.8164 H 96.8125 v -3.28907 h 4.82031 v -1.78906 H 96.8125 v -3.29102 h 5.34766 v -0.19531 -1.62109 z"
       id="path24"
       inkscape:connector-curvature="0"
       sodipodi:nodetypes="cccccccccccccc" />
    <path
       style="color:#000000;font-style:normal;font-variant:normal;font-weight:normal;font-stretch:normal;font-size:medium;line-height:normal;font-family:sans-serif;font-variant-ligatures:normal;font-variant-position:normal;font-variant-caps:normal;font-variant-numeric:normal;font-variant-alternates:normal;font-feature-settings:normal;text-indent:0;text-align:start;text-decoration:none;text-decoration-line:none;text-decoration-style:solid;text-decoration-color:#000000;letter-spacing:normal;word-spacing:normal;text-transform:none;writing-mode:lr-tb;direction:ltr;text-orientation:mixed;dominant-baseline:auto;baseline-shift:baseline;text-anchor:start;white-space:normal;shape-padding:0;clip-rule:nonzero;display:inline;overflow:visible;visibility:visible;opacity:1;isolation:auto;mix-blend-mode:normal;color-interpolation:sRGB;color-interpolation-filters:linearRGB;solid-color:#000000;solid-opacity:1;vector-effect:none;fill:#000000;fill-opacity:1;fill-rule:nonzero;stroke:none;stroke-width:0.38968834;stroke-linecap:butt;stroke-linejoin:miter;stroke-miterlimit:10;stroke-dasharray:none;stroke-dashoffset:0;stroke-opacity:1;color-rendering:auto;image-rendering:auto;shape-rendering:auto;text-rendering:auto;enable-background:accumulate"
       d="m 103.34961,232.88672 v 1.8164 h 3.28125 v 10.18555 h 1.9043 v -0.19531 -9.99024 h 3.28125 v -1.8164 z"
       id="path28"
       inkscape:connector-curvature="0"
       sodipodi:nodetypes="cccccccccc" />
    <path
       style="color:#000000;font-style:normal;font-variant:normal;font-weight:normal;font-stretch:normal;font-size:medium;line-height:normal;font-family:sans-serif;font-variant-ligatures:normal;font-variant-position:normal;font-variant-caps:normal;font-variant-numeric:normal;font-variant-alternates:normal;font-feature-settings:normal;text-indent:0;text-align:start;text-decoration:none;text-decoration-line:none;text-decoration-style:solid;text-decoration-color:#000000;letter-spacing:normal;word-spacing:normal;text-transform:none;writing-mode:lr-tb;direction:ltr;text-orientation:mixed;dominant-baseline:auto;baseline-shift:baseline;text-anchor:start;white-space:normal;shape-padding:0;clip-rule:nonzero;display:inline;overflow:visible;visibility:visible;opacity:1;isolation:auto;mix-blend-mode:normal;color-interpolation:sRGB;color-interpolation-filters:linearRGB;solid-color:#000000;solid-opacity:1;vector-effect:none;fill:#000000;fill-opacity:1;fill-rule:nonzero;stroke:none;stroke-width:0.38968834;stroke-linecap:butt;stroke-linejoin:miter;stroke-miterlimit:10;stroke-dasharray:none;stroke-dashoffset:0;stroke-opacity:1;color-rendering:auto;image-rendering:auto;shape-rendering:auto;text-rendering:auto;enable-background:accumulate"
       d="m 117.27344,232.88672 v 12.00195 h 0.19336 1.70703 v -12.00195 z"
       id="path32"
       inkscape:connector-curvature="0"
       sodipodi:nodetypes="cccccc" />
    <path
       style="color:#000000;font-style:normal;font-variant:normal;font-weight:normal;font-stretch:normal;font-size:medium;line-height:normal;font-family:sans-serif;font-variant-ligatures:normal;font-variant-position:normal;font-variant-caps:normal;font-variant-numeric:normal;font-variant-alternates:normal;font-feature-settings:normal;text-indent:0;text-align:start;text-decoration:none;text-decoration-line:none;text-decoration-style:solid;text-decoration-color:#000000;letter-spacing:normal;word-spacing:normal;text-transform:none;writing-mode:lr-tb;direction:ltr;text-orientation:mixed;dominant-baseline:auto;baseline-shift:baseline;text-anchor:start;white-space:normal;shape-padding:0;clip-rule:nonzero;display:inline;overflow:visible;visibility:visible;opacity:1;isolation:auto;mix-blend-mode:normal;color-interpolation:sRGB;color-interpolation-filters:linearRGB;solid-color:#000000;solid-opacity:1;vector-effect:none;fill:#000000;fill-opacity:1;fill-rule:nonzero;stroke:none;stroke-width:0.38968834;stroke-linecap:butt;stroke-linejoin:miter;stroke-miterlimit:10;stroke-dasharray:none;stroke-dashoffset:0;stroke-opacity:1;color-rendering:auto;image-rendering:auto;shape-rendering:auto;text-rendering:auto;enable-background:accumulate"
       d="m 120.68945,232.88672 v 1.8164 h 3.29297 v 10.18555 h 1.89258 v -0.19531 -9.99024 h 3.29102 v -1.8164 z"
       id="path36"
       inkscape:connector-curvature="0"
       sodipodi:nodetypes="cccccccccc" />
    <path
       style="color:#000000;font-style:normal;font-variant:normal;font-weight:normal;font-stretch:normal;font-size:medium;line-height:normal;font-family:sans-serif;font-variant-ligatures:normal;font-variant-position:normal;font-variant-caps:normal;font-variant-numeric:normal;font-variant-alternates:normal;font-feature-settings:normal;text-indent:0;text-align:start;text-decoration:none;text-decoration-line:none;text-decoration-style:solid;text-decoration-color:#000000;letter-spacing:normal;word-spacing:normal;text-transform:none;writing-mode:lr-tb;direction:ltr;text-orientation:mixed;dominant-baseline:auto;baseline-shift:baseline;text-anchor:start;white-space:normal;shape-padding:0;clip-rule:nonzero;display:inline;overflow:visible;visibility:visible;opacity:1;isolation:auto;mix-blend-mode:normal;color-interpolation:sRGB;color-interpolation-filters:linearRGB;solid-color:#000000;solid-opacity:1;vector-effect:none;fill:#000000;fill-opacity:1;fill-rule:nonzero;stroke:none;stroke-width:0.38968834;stroke-linecap:butt;stroke-linejoin:miter;stroke-miterlimit:10;stroke-dasharray:none;stroke-dashoffset:0;stroke-opacity:1;color-rendering:auto;image-rendering:auto;shape-rendering:auto;text-rendering:auto;enable-background:accumulate"
       d="m 139.95703,232.62109 c -1.76645,0 -3.26254,0.60986 -4.45508,1.81836 -1.18961,1.20566 -1.78906,2.70307 -1.78906,4.44922 0,1.74617 0.59953,3.24356 1.78906,4.44922 1.19254,1.2085 2.68863,1.81836 4.45508,1.81836 1.75695,0 3.25278,-0.60978 4.44531,-1.81836 1.18962,-1.20566 1.78907,-2.70306 1.78907,-4.44922 0,-1.73614 -0.6009,-3.22499 -1.79883,-4.43945 -1.19257,-1.2185 -2.68817,-1.82813 -4.43555,-1.82813 z m 0,1.81641 c 1.2092,0 2.22038,0.41293 3.04883,1.24805 0.8338,0.83359 1.25391,1.89196 1.25391,3.20312 0,1.31119 -0.41991,2.36761 -1.25391,3.20117 -0.82845,0.835 -1.83965,1.24805 -3.04883,1.24805 -1.2193,0 -2.21934,-0.41352 -3.05859,-1.25 -0.833,-0.83339 -1.25391,-1.88867 -1.25391,-3.19922 0,-1.31055 0.4207,-2.36778 1.25391,-3.20117 0.83926,-0.83634 1.8393,-1.25 3.05859,-1.25 z"
       id="path40"
       inkscape:connector-curvature="0"
       sodipodi:nodetypes="scscscscsscscscscs" />
    <path
       style="color:#000000;font-style:normal;font-variant:normal;font-weight:normal;font-stretch:normal;font-size:medium;line-height:normal;font-family:sans-serif;font-variant-ligatures:normal;font-variant-position:normal;font-variant-caps:normal;font-variant-numeric:normal;font-variant-alternates:normal;font-feature-settings:normal;text-indent:0;text-align:start;text-decoration:none;text-decoration-line:none;text-decoration-style:solid;text-decoration-color:#000000;letter-spacing:normal;word-spacing:normal;text-transform:none;writing-mode:lr-tb;direction:ltr;text-orientation:mixed;dominant-baseline:auto;baseline-shift:baseline;text-anchor:start;white-space:normal;shape-padding:0;clip-rule:nonzero;display:inline;overflow:visible;visibility:visible;opacity:1;isolation:auto;mix-blend-mode:normal;color-interpolation:sRGB;color-interpolation-filters:linearRGB;solid-color:#000000;solid-opacity:1;vector-effect:none;fill:#000000;fill-opacity:1;fill-rule:nonzero;stroke:none;stroke-width:0.38968834;stroke-linecap:butt;stroke-linejoin:miter;stroke-miterlimit:10;stroke-dasharray:none;stroke-dashoffset:0;stroke-opacity:1;color-rendering:auto;image-rendering:auto;shape-rendering:auto;text-rendering:auto;enable-background:accumulate"
       d="m 147.92578,232.88672 v 12.00195 h 0.19336 1.69727 v -7.43164 l -0.0488,-1.64258 5.72851,9.07422 h 1.88086 v -12.00195 h -1.90039 v 6.99609 l 0.0488,1.63672 -5.46094,-8.63281 z"
       id="path44"
       inkscape:connector-curvature="0"
       sodipodi:nodetypes="cccccccccccccc" />
    <path
       inkscape:connector-curvature="0"
       id="path46"
       style="fill:#000000;fill-opacity:1;fill-rule:nonzero;stroke:none;stroke-width:2.43555236"
       d="m 133.53617,261.65323 c -4.60328,0 -8.36377,3.46253 -8.36377,8.23984 0,4.73859 3.76049,8.2374 8.36377,8.2374 4.61304,0 8.3736,-3.49881 8.3736,-8.2374 0,-4.77731 -3.76056,-8.23984 -8.3736,-8.23984 z m 0,13.23264 c -2.52581,0 -4.69883,-2.06056 -4.69883,-4.9928 0,-2.97097 2.17302,-4.99523 4.69883,-4.99523 2.52581,0 4.70859,2.02426 4.70859,4.99523 0,2.93224 -2.18278,4.9928 -4.70859,4.9928 z m -18.24893,-13.23264 c -4.61304,0 -8.36377,3.46253 -8.36377,8.23984 0,4.73859 3.75073,8.2374 8.36377,8.2374 4.61059,0 8.36376,-3.49881 8.36376,-8.2374 0,-4.77731 -3.75317,-8.23984 -8.36376,-8.23984 z m 0,13.23264 c -2.52825,0 -4.70859,-2.06056 -4.70859,-4.9928 0,-2.97097 2.18034,-4.99523 4.70859,-4.99523 2.5258,0 4.69883,2.02426 4.69883,4.99523 0,2.93224 -2.17303,4.9928 -4.69883,4.9928 z m -21.715388,-10.7072 v 3.50125 h 8.459318 c -0.24756,1.9565 -0.90894,3.39477 -1.92318,4.39718 -1.234673,1.21066 -3.15785,2.55456 -6.536138,2.55456 -5.205917,0 -9.282461,-4.15266 -9.282461,-9.29798 0,-5.14539 4.076544,-9.29798 9.282461,-9.29798 2.814821,0 4.862885,1.08718 6.374454,2.4964 l 2.496394,-2.46736 c -2.1142,-1.99515 -4.926654,-3.52785 -8.870848,-3.52785 -7.138848,0 -13.138569,5.741 -13.138569,12.79679 0,7.05579 5.999721,12.79679 13.138569,12.79679 3.858473,0 6.756648,-1.24945 9.034978,-3.59325 2.33471,-2.30759 3.0623,-5.5522 3.0623,-8.17208 0,-0.81354 -0.0665,-1.56175 -0.19139,-2.18647 z m 88.797048,2.71432 c -0.68872,-1.84263 -2.81238,-5.23976 -7.13884,-5.23976 -4.28723,0 -7.85662,3.33905 -7.85662,8.23984 0,4.61503 3.53266,8.2374 8.26822,8.2374 3.82914,0 6.03889,-2.30751 6.94775,-3.65141 l -2.84179,-1.87167 c -0.9481,1.3705 -2.23916,2.27848 -4.10596,2.27848 -1.85452,0 -3.18482,-0.84022 -4.03737,-2.4964 l 11.14925,-4.55939 z m -11.36725,2.74343 c -0.0953,-3.17684 2.4964,-4.80398 4.35337,-4.80398 1.45518,0 2.68993,0.71902 3.10154,1.74826 z m -9.06195,7.99281 h 3.66494 v -24.21341 h -3.66494 z m -6.00216,-14.14062 h -0.12267 c -0.82314,-0.96369 -2.39346,-1.83538 -4.38277,-1.83538 -4.17453,0 -7.9914,3.62229 -7.9914,8.26644 0,4.61755 3.81687,8.2108 7.9914,8.2108 1.98931,0 3.55963,-0.87893 4.38277,-1.87167 h 0.12267 v 1.18155 c 0,3.15017 -1.70266,4.84271 -4.44891,4.84271 -2.23916,0 -3.62821,-1.5981 -4.2015,-2.94193 l -3.18727,1.31478 c 0.91877,2.18404 3.35139,4.87176 7.38877,4.87176 4.29705,0 7.92282,-2.49884 7.92282,-8.57881 v -14.79439 h -3.47391 z m -4.19167,11.39726 c -2.52581,0 -4.64001,-2.0896 -4.64001,-4.9662 0,-2.9032 2.1142,-5.02183 4.64001,-5.02183 2.48901,0 4.45135,2.11863 4.45135,5.02183 0,2.8766 -1.96234,4.9662 -4.45135,4.9662 z m 47.78176,-21.47005 h -8.76555 v 24.21341 h 3.65519 v -9.17442 h 5.11036 c 4.0594,0 8.0404,-2.90321 8.0404,-7.52075 0,-4.61504 -3.99075,-7.51824 -8.0404,-7.51824 z m 0.0953,11.6709 h -5.20592 v -8.30281 h 5.20592 c 2.72918,0 4.2873,2.23976 4.2873,4.15015 0,1.87418 -1.55812,4.15266 -4.2873,4.15266 z m 22.59498,-3.47953 c -2.64094,0 -5.38726,1.15257 -6.51663,3.70713 l 3.24365,1.34382 c 0.69833,-1.34382 1.98192,-1.77967 3.33912,-1.77967 1.89613,0 3.81931,1.1259 3.84872,3.11381 v 0.25421 c -0.66138,-0.37761 -2.07747,-0.93709 -3.81931,-0.93709 -3.49349,0 -7.05312,1.90079 -7.05312,5.448 0,3.24461 2.86137,5.33428 6.07805,5.33428 2.45967,0 3.81687,-1.09693 4.66942,-2.37292 h 0.12489 v 1.87167 h 3.53022 v -9.28829 c 0,-4.29299 -3.24358,-6.69503 -7.44508,-6.69503 z m -0.44116,13.269 c -1.19551,0 -2.86145,-0.58601 -2.86145,-2.05088 0,-1.8741 2.07747,-2.59327 3.87569,-2.59327 1.60955,0 2.36405,0.35101 3.34156,0.81361 -0.28672,2.24211 -2.23916,3.83054 -4.3558,3.83054 z m 20.7477,-12.73871 -4.20151,10.49651 h -0.12489 l -4.34353,-10.49651 h -3.9419 l 6.52638,14.66853 -3.72375,8.16233 h 3.8193 l 10.05661,-22.83086 z m -32.948,15.49175 h 3.66494 v -24.21341 h -3.66494 z" />
    <path
       d="m 20.451262,234.12012 c -0.575714,0.59565 -0.908893,1.52302 -0.908893,2.72401 v 42.83839 c 0,1.20098 0.333179,2.12836 0.908893,2.72401 l 0.142091,0.13075 24.287771,-23.9955 v -0.5666 l -24.287771,-23.9955 z"
       style="fill:#000000;fill-opacity:1;fill-rule:nonzero;stroke:none;stroke-width:2.43555236"
       id="path64"
       inkscape:connector-curvature="0" />
    <path
       inkscape:connector-curvature="0"
       d="M 20.58399,282.85007 45.17047,258.23711 20.604587,233.66828 c -0.65615,0.38251 -1.062197,1.26816 -1.062197,2.42747 v 44.3504 c 0.0088,1.1593 0.400163,1.98022 1.0416,2.40392 z"
       id="path20903"
       style="fill:#000000;stroke-width:0.29423743" />
    <path
       inkscape:connector-curvature="0"
       d="m 46.050932,257.55743 7.32357,-7.33241 -29.823907,-16.37137 a 3.2984017,3.2984017 0 0 0 -1.653615,-0.44724 l 24.15101,24.14807 z"
       id="path20905"
       style="fill:#000000;stroke-width:0.29423743" />
    <path
       inkscape:connector-curvature="0"
       d="m 46.050932,258.91974 -24.227511,24.25399 a 3.28369,3.28369 0 0 0 1.730116,-0.45901 l 29.882756,-16.4155 z"
       id="path20907"
       style="fill:#000000;stroke-width:0.29423743" />
    <path
       inkscape:connector-curvature="0"
       d="m 64.178903,256.16568 -9.924629,-5.45811 -7.523653,7.53248 7.579558,7.57956 9.86578,-5.4434 c 2.097914,-1.15635 2.097914,-3.06006 0.003,-4.21053 z"
       id="path20909"
       style="fill:#000000;stroke-width:0.29423743" />
    <g
       id="g150"
       style="fill:#000000"
       transform="matrix(2.4498458,0,0,-2.4213425,5.7764772,321.44581)" />
  </g>
</svg>
