<svg width="79" height="72" viewBox="0 0 79 72" fill="none" xmlns="http://www.w3.org/2000/svg">
<path d="M17.8226 69.3563C18.9022 69.3563 19.5404 69.8486 19.5404 70.6364C19.5404 71.4241 18.9022 71.9254 17.8226 71.9254H16.1942V67.5511H19.111V68.0375H16.731V69.3563H17.8226ZM17.748 69.8427H16.731V71.436H17.748C18.5861 71.436 18.9917 71.1496 18.9917 70.6364C18.9917 70.1172 18.5861 69.8427 17.748 69.8427Z" fill="#4489C9"/>
<path d="M24.7357 72C23.8231 72 23.2117 71.624 22.7434 70.9049L23.0984 70.7169C23.4741 71.2481 24.011 71.4987 24.7088 71.4987C25.69 71.4987 26.4505 70.9676 26.5579 69.9799H24.0646V69.4906H26.5579C26.4505 68.5029 25.69 67.9718 24.7088 67.9718C23.8857 67.9718 23.334 68.4253 23.2355 69.0161H22.6719C22.7792 68.2045 23.4652 67.4705 24.7327 67.4705C26.1821 67.4705 27.1126 68.4015 27.1126 69.7323C27.1126 71.0631 26.1851 72 24.7357 72Z" fill="#4489C9"/>
<path d="M34.5656 71.9254H34.0586V68.4194L30.9927 71.9254H30.5812V67.5511H31.0852V71.0571L34.1511 67.5511H34.5626V71.9254H34.5656ZM33.2832 66.2144H33.7157C33.5964 66.7127 33.1788 67.1453 32.5794 67.1453C31.9799 67.1453 31.5683 66.7127 31.4431 66.2144H31.8755C32.0247 66.5903 32.2931 66.7395 32.5824 66.7395C32.8657 66.7395 33.1341 66.5873 33.2832 66.2144Z" fill="#4489C9"/>
<path d="M40.1635 69.3384L42.105 71.9254H41.4131L39.8026 69.7203L38.8274 70.7319V71.9254H38.2905V67.5511H38.8274V69.968L41.1894 67.5511H41.8813L40.1635 69.3384Z" fill="#4489C9"/>
<path d="M45.2961 67.5511H48.4366V68.0375H45.833V69.4249H48.1741V69.9113H45.833V71.436H48.5052V71.9254H45.2961V67.5511Z" fill="#4489C9"/>
<path d="M53.4977 70.2753H52.4718V71.9254H51.9349V67.5511H53.4947C54.6698 67.5511 55.3945 68.0076 55.3945 68.9117C55.3945 69.8188 54.6698 70.2753 53.4977 70.2753ZM53.447 68.0375H52.4718V69.789H53.447C54.3894 69.789 54.8457 69.5145 54.8457 68.9147C54.8457 68.315 54.3894 68.0375 53.447 68.0375Z" fill="#4489C9"/>
<path d="M62.7699 71.9254H62.2628V68.4194L59.197 71.9254H58.7854V67.5511H59.2924V71.0571L62.3583 67.5511H62.7699V71.9254Z" fill="#4489C9"/>
<path d="M43.8677 35.7911C42.1349 35.7911 40.596 35.1496 39.5015 34.2395C38.407 35.1526 36.8681 35.7911 35.1353 35.7911C33.1222 35.7911 31.9859 34.9616 30.8854 34.159C29.5463 33.1803 28.2818 32.2583 25.198 32.8908C25.0102 32.9326 24.8103 32.87 24.6731 32.7327C24.536 32.5954 24.4763 32.3985 24.5151 32.2075C25.1503 29.1252 24.2258 27.8571 23.2476 26.5174C22.4453 25.4163 21.6162 24.2795 21.6162 22.2654C21.6162 20.5288 22.2574 18.9921 23.17 17.8941C22.2574 16.799 21.6162 15.2593 21.6162 13.5257C21.6162 11.5116 22.4453 10.3748 23.2476 9.27377C24.2258 7.93104 25.1503 6.66589 24.5151 3.58359C24.4763 3.39262 24.536 3.19569 24.6731 3.05843C24.8103 2.92118 25.0102 2.85852 25.198 2.90029C28.2788 3.53286 29.5463 2.61086 30.8854 1.63216C31.9859 0.829507 33.1222 0 35.1353 0C36.871 0 38.407 0.641524 39.5015 1.55159C40.596 0.63854 42.1349 0 43.8677 0C45.8808 0 47.0171 0.829507 48.1176 1.63216C49.4566 2.61086 50.7241 3.53286 53.8049 2.90029C53.9988 2.85852 54.1926 2.92118 54.3298 3.05843C54.467 3.19569 54.5267 3.39561 54.4879 3.58359C53.8526 6.66589 54.7772 7.93402 55.7554 9.27377C56.5577 10.3718 57.3868 11.5116 57.3868 13.5257C57.3868 15.2623 56.7456 16.799 55.8359 17.8941C56.7485 18.9891 57.3868 20.5288 57.3868 22.2654C57.3868 24.2795 56.5577 25.4163 55.7554 26.5174C54.7772 27.8601 53.8526 29.1252 54.4879 32.2075C54.5267 32.3985 54.467 32.5954 54.3298 32.7327C54.1926 32.87 53.9958 32.9326 53.8049 32.8908C50.7212 32.2583 49.4566 33.1803 48.1176 34.159C47.0171 34.9616 45.8808 35.7911 43.8677 35.7911ZM40.3216 33.4041C41.1955 34.1053 42.4332 34.6334 43.8677 34.6334C45.505 34.6334 46.3997 33.9799 47.4346 33.222C48.7379 32.2702 50.1992 31.205 53.2114 31.6138C52.8029 28.6001 53.8676 27.135 54.8189 25.8311C55.5765 24.7927 56.2296 23.8976 56.2296 22.2624C56.2296 20.8272 55.7017 19.5889 55.0009 18.7146C54.2851 19.2845 53.4918 19.6098 52.7372 19.6098C51.7173 19.6098 51.0045 18.9056 51.0045 17.8941C51.0045 16.8825 51.7173 16.1784 52.7372 16.1784C53.4888 16.1784 54.2851 16.5036 55.0009 17.0735C55.7047 16.1992 56.2296 14.961 56.2296 13.5257C56.2296 11.8876 55.5765 10.9925 54.8189 9.95707C53.8676 8.65313 52.8029 7.19105 53.2114 4.17439C50.1963 4.58317 48.7349 3.51794 47.4346 2.5661C46.3967 1.8082 45.502 1.15474 43.8677 1.15474C42.4332 1.15474 41.1955 1.68288 40.3216 2.38408C40.8913 3.1002 41.2163 3.89391 41.2163 4.64882C41.2163 5.66929 40.5125 6.38243 39.5015 6.38243C38.4905 6.38243 37.7866 5.66929 37.7866 4.64882C37.7866 3.89689 38.1117 3.1002 38.6813 2.38408C37.8075 1.68288 36.5698 1.15474 35.1353 1.15474C33.498 1.15474 32.6033 1.8082 31.5684 2.5661C30.2651 3.51794 28.8007 4.58019 25.7915 4.17439C26.2001 7.19105 25.1354 8.65313 24.184 9.95707C23.4265 10.9954 22.7764 11.8906 22.7764 13.5257C22.7764 14.961 23.3042 16.1992 24.0051 17.0735C24.7209 16.5036 25.5142 16.1784 26.2687 16.1784C27.2887 16.1784 28.0015 16.8825 28.0015 17.8941V17.8971C28.0015 18.9056 27.2887 19.6128 26.2687 19.6128C25.5172 19.6128 24.7209 19.2875 24.0051 18.7176C23.3042 19.5919 22.7764 20.8302 22.7764 22.2654C22.7764 23.9035 23.4295 24.7987 24.184 25.8341C25.1324 27.138 26.2001 28.6001 25.7915 31.6167C28.8037 31.205 30.2681 32.2732 31.5684 33.225C32.6063 33.9829 33.501 34.6364 35.1353 34.6364C36.5698 34.6364 37.8075 34.1082 38.6843 33.407C38.1147 32.6909 37.7896 31.8942 37.7896 31.1423C37.7896 30.1218 38.4934 29.4087 39.5045 29.4087C40.5155 29.4087 41.2193 30.1218 41.2193 31.1423C41.2163 31.8913 40.8913 32.6879 40.3216 33.4041ZM39.5015 30.5634C39.0392 30.5634 38.9438 30.8767 38.9438 31.1393C38.9438 31.575 39.1436 32.0762 39.5015 32.5626C39.8624 32.0792 40.0592 31.575 40.0592 31.1393C40.0592 30.8767 39.9638 30.5634 39.5015 30.5634ZM52.7372 17.3361C52.4748 17.3361 52.1616 17.4346 52.1616 17.8941C52.1616 18.3566 52.4748 18.455 52.7372 18.455C53.1727 18.455 53.6737 18.2551 54.1598 17.8971C53.6737 17.536 53.1727 17.3361 52.7372 17.3361ZM24.8431 17.8941C25.3263 18.2551 25.8273 18.4521 26.2627 18.4521C26.5252 18.4521 26.8383 18.3536 26.8383 17.8941V17.8911C26.8383 17.4316 26.5252 17.3331 26.2627 17.3331C25.8273 17.3361 25.3263 17.536 24.8431 17.8941ZM39.5015 3.22851C39.1406 3.71189 38.9438 4.21318 38.9438 4.6518C38.9438 4.91438 39.0392 5.22768 39.5015 5.22768C39.9638 5.22768 40.0622 4.91438 40.0622 4.6518C40.0592 4.21616 39.8594 3.71189 39.5015 3.22851Z" fill="#4489C9"/>
<path d="M34.9175 20.7675V13.3616C34.9205 12.926 35.1353 12.5441 35.4603 12.3024C35.687 12.1651 35.9614 12.0696 36.2686 12.0696H36.3401V11.64H31.6578V12.0696H32.0634C32.3706 12.0696 32.645 12.1651 32.8716 12.3024C33.1997 12.55 33.4144 12.929 33.4144 13.3706V21.051C33.4144 22.0565 32.3139 23.6409 31.2492 23.814H31.2373V24.1512C31.801 24.1512 34.7804 23.4082 34.9175 20.7675Z" fill="#4489C9"/>
<path d="M38.0133 13.3676V21.4568C38.0133 22.1998 37.4019 22.7965 36.6623 22.7965H36.2448V23.1814H41.2671V22.7965H40.8495C40.1278 22.7965 39.5313 22.2236 39.5104 21.5015V17.9717H40.7422C41.1537 17.9717 41.5056 18.1775 41.7323 18.5267L43.7365 21.5135C44.4343 22.5489 45.6034 23.1814 46.865 23.1814H47.7686V22.7965C46.6294 22.7965 45.5259 21.3762 45.335 21.1166C45.3111 21.0838 45.3022 21.0719 45.3022 21.0719L43.7901 18.8191L43.2175 17.9717L43.1161 17.8165C43.4651 17.7807 44.0079 17.5301 44.0645 17.4883C44.9652 16.9333 45.5617 15.9307 45.5617 14.8058C45.5617 13.666 44.9652 12.6634 44.0645 12.1144C44.0079 12.0666 43.9512 12.0458 43.8826 12.0099C43.4412 11.7742 42.9372 11.64 42.3974 11.64H36.6354V12.0666C37.6047 12.0696 38.0133 12.747 38.0133 13.3676ZM39.5075 12.6783C39.5075 12.3054 39.7997 12.0129 40.1725 12.0129H41.2671C42.8089 12.0129 44.0615 13.2632 44.0615 14.8088C44.0615 15.7427 43.5993 16.5633 42.8895 17.0735C42.4719 17.3779 41.9649 17.5569 41.4251 17.5897H39.5104V12.6783H39.5075Z" fill="#4489C9"/>
<path d="M62.2987 48.6514V49.0751H62.8087C63.2441 49.0751 63.5215 49.5436 63.3067 49.9255L60.8075 54.3923C60.6763 54.6281 60.3393 54.6281 60.2081 54.3923L57.7088 49.9255C57.4971 49.5436 57.7715 49.0751 58.2069 49.0751H58.7169V48.6514H53.3635V49.0751H54.0316C54.6519 49.0751 55.2245 49.4093 55.5257 49.9524L58.6364 55.5172C58.8153 55.8395 58.9107 56.2035 58.9107 56.5705V58.5488C58.9107 59.2739 58.3232 59.8647 57.5955 59.8647H57.1899V60.2884H62.5433V59.8647H62.1377C61.4129 59.8647 60.8224 59.2769 60.8224 58.5488V56.7317C60.8224 56.2572 60.9447 55.7888 61.1773 55.374L64.2104 49.9524C64.5146 49.4093 65.0842 49.0751 65.7046 49.0751H66.3726V48.6514H62.2987Z" fill="#4489C9"/>
<path d="M36.4714 48.6514V49.0751H36.877C37.6018 49.0751 38.1923 49.6629 38.1923 50.391V58.5518C38.1923 59.2769 37.6047 59.8677 36.877 59.8677H36.4714V60.2914H41.8248V59.8677H41.4192C40.6945 59.8677 40.104 59.2798 40.104 58.5518V55.6784V55.1114V54.6877V54.1566V49.6928C40.104 49.3526 40.3783 49.0751 40.7213 49.0751H41.4192C42.967 49.0751 44.2226 50.3313 44.2226 51.8799C44.2226 53.4285 42.967 54.6847 41.4192 54.6847H39.8236V55.1084H42.9104C44.6938 55.1084 46.1403 53.6613 46.1403 51.8769C46.1403 50.0926 44.6938 48.6454 42.9104 48.6454H36.4714V48.6514Z" fill="#4489C9"/>
<path d="M16.2599 58.8979L14.1424 55.3979C13.6086 54.5475 13.2328 54.2342 11.8281 54.2342H11.2495H9.93428L9.89551 54.6579H10.8797C11.2197 54.6579 11.503 54.831 11.6581 55.0906L12.5379 56.5467L13.9128 58.8203C14.4585 59.7095 15.4397 60.2884 16.6088 60.2884H17.9747L18.0135 59.8647C17.25 59.8647 16.6118 59.4828 16.2599 58.8979Z" fill="#4489C9"/>
<path d="M15.5889 50.021L13.6861 53.5211C13.203 54.3715 12.8481 54.6848 11.4434 54.6848H10.8648H9.54957L9.48694 54.2611H10.4711C10.8111 54.2611 11.0825 54.088 11.2227 53.8284L12.016 52.3723L13.2507 50.0986C13.7428 49.2094 14.6882 48.6306 15.8573 48.6306H17.2232L17.2858 49.0543C16.5194 49.0513 15.902 49.4362 15.5889 50.021Z" fill="#4489C9"/>
<path d="M1.75364 58.8979L3.87111 55.3979C4.40495 54.5475 4.78074 54.2342 6.18543 54.2342H6.76401H8.07924L8.11801 54.6579H7.13382C6.79383 54.6579 6.51051 54.831 6.35543 55.0906L5.47563 56.5467L4.10076 58.8203C3.55499 59.7095 2.57378 60.2884 1.40469 60.2884H0.0387723L0 59.8647C0.766469 59.8647 1.4047 59.4828 1.75364 58.8979Z" fill="#4489C9"/>
<path d="M2.42768 50.021L4.33044 53.5211C4.81358 54.3715 5.16848 54.6848 6.57317 54.6848H7.15175H8.46698L8.52962 54.2611H7.54543C7.20544 54.2611 6.93405 54.088 6.79388 53.8284L6.00056 52.3723L4.76586 50.0986C4.27377 49.2094 3.32836 48.6306 2.15927 48.6306H0.793349L0.730713 49.0543C1.49718 49.0513 2.11155 49.4362 2.42768 50.021Z" fill="#4489C9"/>
<path d="M8.04944 58.5518C8.04944 59.2769 7.46191 59.8677 6.73421 59.8677H6.32861V60.2914H11.682V59.8677H11.2764C10.5516 59.8677 9.96114 59.2799 9.96114 58.5518V50.391C9.96114 49.6659 10.5487 49.0751 11.2764 49.0751H11.682V48.6514H6.33159V49.0751H6.7372C7.46191 49.0751 8.05242 49.6629 8.05242 50.391L8.04944 58.5518Z" fill="#4489C9"/>
<path d="M29.4419 48.6514V49.0751H29.9519C30.3873 49.0751 30.6647 49.5436 30.4499 49.9255L27.9507 54.3923C27.8195 54.6281 27.4825 54.6281 27.3513 54.3923L24.852 49.9255C24.6403 49.5436 24.9147 49.0751 25.3501 49.0751H25.8601V48.6514H20.5067V49.0751H21.1748C21.7951 49.0751 22.3677 49.4093 22.6689 49.9524L25.7796 55.5172C25.9585 55.8395 26.0539 56.2035 26.0539 56.5705V58.5488C26.0539 59.2739 25.4664 59.8647 24.7387 59.8647H24.3331V60.2884H29.6864V59.8647H29.2808C28.5561 59.8647 27.9656 59.2769 27.9656 58.5488V56.7317C27.9656 56.2572 28.0879 55.7888 28.3205 55.374L31.3536 49.9524C31.6578 49.4093 32.2274 49.0751 32.8478 49.0751H33.5158V48.6514H29.4419Z" fill="#4489C9"/>
<path d="M69.3312 48.6514V49.0751H69.7368C70.4615 49.0751 71.052 49.6629 71.052 50.391V58.5518C71.052 59.2769 70.4645 59.8677 69.7368 59.8677H69.3312V60.2914H74.6845V59.8677H74.2789C73.5542 59.8677 72.9637 59.2798 72.9637 58.5518V55.6784V55.1114V54.6877V54.1566V49.6928C72.9637 49.3526 73.2381 49.0751 73.5811 49.0751H74.2789C75.8268 49.0751 77.0824 50.3313 77.0824 51.8799C77.0824 53.4285 75.8268 54.6847 74.2789 54.6847H72.6834V55.1084H75.7701C77.5536 55.1084 79 53.6613 79 51.8769C79 50.0926 77.5536 48.6454 75.7701 48.6454H69.3312V48.6514Z" fill="#4489C9"/>
</svg>
