<svg width="349" height="79" viewBox="0 0 349 79" fill="none" xmlns="http://www.w3.org/2000/svg">
<g filter="url(#filter0_d_356_3009)">
<path d="M18 27.2921L83 46L48.5397 9L18 27.2921Z" fill="#794835" stroke="#794835"/>
<path d="M18 41.2621V31L83 50.8828V62L18 41.2621Z" fill="#794835" stroke="#794835"/>
<path d="M13.8966 25.6727L45.9655 6.01818L41.2069 1L5.62069 21.7L5 46.5818L83 70V65.4L13.8966 43.8636V25.6727Z" fill="#794835" stroke="#794835"/>
<path d="M105.04 24.3945L105.116 49.9998H102.596L102.52 24.3945H95.8406L95.8335 21.9921H111.712L111.72 24.3945H105.04ZM125.975 49.9998L125.932 35.3515C125.93 34.8697 125.838 34.4205 125.654 34.0038C125.471 33.5741 125.222 33.203 124.909 32.8905C124.595 32.578 124.224 32.3306 123.793 32.1483C123.376 31.9661 122.927 31.8749 122.445 31.8749H120.843C120.362 31.8749 119.906 31.9661 119.477 32.1483C119.061 32.3306 118.697 32.578 118.385 32.8905C118.074 33.203 117.828 33.5741 117.647 34.0038C117.465 34.4205 117.376 34.8697 117.377 35.3515L117.421 49.9998H115.018L114.935 21.9921H117.337L117.366 31.6796C117.911 31.0286 118.567 30.5207 119.334 30.1562C120.101 29.7916 120.934 29.6093 121.833 29.6093H122.438C123.245 29.6093 124.008 29.7655 124.725 30.078C125.442 30.3775 126.068 30.7942 126.603 31.328C127.139 31.8619 127.557 32.4869 127.859 33.203C128.174 33.9192 128.332 34.6809 128.335 35.4882L128.378 49.9998H125.975ZM146.525 44.5116C146.528 45.3189 146.374 46.0806 146.063 46.7967C145.766 47.5129 145.351 48.1379 144.819 48.6717C144.287 49.2056 143.663 49.6287 142.948 49.9412C142.233 50.2407 141.471 50.3905 140.664 50.3905H139.062C138.255 50.3905 137.493 50.2407 136.776 49.9412C136.059 49.6287 135.433 49.2056 134.897 48.6717C134.362 48.1379 133.937 47.5129 133.622 46.7967C133.32 46.0806 133.168 45.3189 133.166 44.5116L133.139 35.4882C133.137 34.6809 133.284 33.9192 133.582 33.203C133.892 32.4869 134.313 31.8619 134.846 31.328C135.378 30.7942 136.002 30.3775 136.717 30.078C137.432 29.7655 138.193 29.6093 139.001 29.6093H140.602C141.41 29.6093 142.172 29.7655 142.889 30.078C143.606 30.3775 144.232 30.7942 144.767 31.328C145.303 31.8619 145.721 32.4869 146.023 33.203C146.338 33.9192 146.496 34.6809 146.499 35.4882L146.513 40.1952H135.556L135.569 44.6483C135.57 45.1301 135.663 45.5858 135.846 46.0155C136.03 46.4321 136.278 46.7967 136.592 47.1092C136.905 47.4217 137.271 47.6691 137.688 47.8514C138.118 48.0337 138.574 48.1248 139.056 48.1248H140.657C141.139 48.1248 141.588 48.0337 142.004 47.8514C142.433 47.6691 142.804 47.4217 143.115 47.1092C143.427 46.7967 143.673 46.4321 143.854 46.0155C144.035 45.5858 144.125 45.1301 144.124 44.6483L144.12 43.3202L146.523 43.7108L146.525 44.5116ZM144.096 35.3515C144.094 34.8697 144.002 34.4205 143.818 34.0038C143.635 33.5741 143.386 33.203 143.073 32.8905C142.759 32.578 142.388 32.3306 141.957 32.1483C141.54 31.9661 141.091 31.8749 140.609 31.8749H139.007C138.526 31.8749 138.07 31.9661 137.641 32.1483C137.225 32.3306 136.861 32.578 136.549 32.8905C136.238 33.203 135.992 33.5741 135.811 34.0038C135.63 34.4205 135.54 34.8697 135.541 35.3515L135.55 38.3202H144.105L144.096 35.3515ZM176.698 43.5155C176.701 44.466 176.521 45.3579 176.159 46.1913C175.81 47.0246 175.324 47.7537 174.701 48.3787C174.078 49.0037 173.35 49.4985 172.518 49.8631C171.686 50.2147 170.794 50.3905 169.844 50.3905H167.852C166.901 50.3905 166.002 50.2147 165.155 49.8631C164.32 49.4985 163.59 49.0037 162.963 48.3787C162.336 47.7537 161.839 47.0246 161.472 46.1913C161.118 45.3579 160.939 44.466 160.937 43.5155L160.892 28.4765C160.889 27.526 161.062 26.634 161.411 25.8007C161.773 24.9674 162.266 24.2382 162.889 23.6132C163.512 22.9882 164.24 22.4999 165.072 22.1484C165.917 21.7838 166.815 21.6015 167.766 21.6015H169.758C170.709 21.6015 171.601 21.7838 172.436 22.1484C173.27 22.4999 174 22.9882 174.627 23.6132C175.254 24.2382 175.745 24.9674 176.099 25.8007C176.466 26.634 176.651 27.526 176.654 28.4765L176.657 29.6093L174.139 29.9999L174.134 28.4765C174.132 27.8515 174.013 27.2721 173.777 26.7382C173.541 26.1913 173.221 25.7161 172.816 25.3124C172.411 24.9088 171.935 24.5898 171.387 24.3554C170.853 24.121 170.273 24.0038 169.648 24.0038H167.89C167.265 24.0038 166.68 24.121 166.133 24.3554C165.6 24.5898 165.126 24.9088 164.711 25.3124C164.308 25.7161 163.99 26.1913 163.758 26.7382C163.525 27.2721 163.409 27.8515 163.411 28.4765L163.456 43.5155C163.458 44.1405 163.577 44.7264 163.813 45.2733C164.049 45.8071 164.369 46.2824 164.774 46.6991C165.192 47.1027 165.668 47.4217 166.203 47.6561C166.75 47.8905 167.337 48.0076 167.962 48.0076H169.719C170.344 48.0076 170.924 47.8905 171.457 47.6561C172.003 47.4217 172.477 47.1027 172.88 46.6991C173.282 46.2824 173.6 45.8071 173.832 45.2733C174.065 44.7264 174.181 44.1405 174.179 43.5155L174.174 41.9921L176.695 42.4022L176.698 43.5155ZM194.1 49.9998L192.766 48.0076C192.222 48.7238 191.54 49.3032 190.721 49.7459C189.902 50.1756 189.004 50.3905 188.027 50.3905H187.422C186.615 50.3905 185.852 50.2407 185.135 49.9412C184.418 49.6287 183.792 49.2056 183.257 48.6717C182.721 48.1379 182.296 47.5129 181.981 46.7967C181.68 46.0806 181.528 45.3189 181.525 44.5116L181.525 44.3163C181.522 43.509 181.67 42.7473 181.967 42.0311C182.278 41.315 182.699 40.69 183.231 40.1561C183.764 39.6223 184.387 39.2056 185.103 38.9061C185.818 38.5936 186.579 38.4374 187.386 38.4374H192.464L192.455 35.3515C192.454 34.8697 192.361 34.4205 192.178 34.0038C191.994 33.5741 191.746 33.203 191.432 32.8905C191.119 32.578 190.747 32.3306 190.317 32.1483C189.9 31.9661 189.45 31.8749 188.968 31.8749H187.562C187.08 31.8749 186.625 31.9661 186.196 32.1483C185.78 32.3306 185.416 32.578 185.104 32.8905C184.793 33.203 184.546 33.5741 184.365 34.0038C184.184 34.4205 184.094 34.8697 184.096 35.3515L184.098 36.0741L181.695 35.6835L181.694 35.4882C181.692 34.6809 181.839 33.9192 182.136 33.203C182.447 32.4869 182.868 31.8619 183.4 31.328C183.933 30.7942 184.556 30.3775 185.272 30.078C185.987 29.7655 186.748 29.6093 187.555 29.6093H188.962C189.769 29.6093 190.531 29.7655 191.248 30.078C191.965 30.3775 192.591 30.7942 193.127 31.328C193.662 31.8619 194.081 32.4869 194.382 33.203C194.697 33.9192 194.856 34.6809 194.858 35.4882L194.901 49.9998H194.1ZM192.47 40.3124H187.392C186.91 40.3124 186.455 40.4035 186.025 40.5858C185.609 40.7681 185.246 41.022 184.934 41.3475C184.622 41.66 184.376 42.0311 184.195 42.4608C184.014 42.8775 183.924 43.3267 183.926 43.8084L183.928 44.6483C183.93 45.1301 184.022 45.5858 184.206 46.0155C184.389 46.4321 184.638 46.7967 184.951 47.1092C185.265 47.4217 185.63 47.6691 186.047 47.8514C186.477 48.0337 186.933 48.1248 187.415 48.1248H189.017C189.498 48.1248 189.947 48.0337 190.364 47.8514C190.793 47.6691 191.163 47.4217 191.475 47.1092C191.786 46.7967 192.032 46.4321 192.214 46.0155C192.395 45.5858 192.484 45.1301 192.483 44.6483L192.47 40.3124ZM211.542 49.9998L203.348 39.9999L211.482 29.9999H214.607L206.278 39.9999L214.667 49.9998H211.542ZM200.507 49.9998L200.423 21.9921H202.826L202.909 49.9998H200.507ZM231.213 44.5116C231.215 45.3189 231.061 46.0806 230.751 46.7967C230.454 47.5129 230.039 48.1379 229.507 48.6717C228.974 49.2056 228.351 49.6287 227.635 49.9412C226.92 50.2407 226.159 50.3905 225.352 50.3905H223.75C222.943 50.3905 222.181 50.2407 221.463 49.9412C220.746 49.6287 220.12 49.2056 219.585 48.6717C219.049 48.1379 218.624 47.5129 218.31 46.7967C218.008 46.0806 217.856 45.3189 217.854 44.5116L217.827 35.4882C217.824 34.6809 217.972 33.9192 218.269 33.203C218.58 32.4869 219.001 31.8619 219.533 31.328C220.065 30.7942 220.689 30.3775 221.404 30.078C222.12 29.7655 222.881 29.6093 223.688 29.6093H225.29C226.097 29.6093 226.859 29.7655 227.576 30.078C228.293 30.3775 228.92 30.7942 229.455 31.328C229.99 31.8619 230.409 32.4869 230.711 33.203C231.025 33.9192 231.184 34.6809 231.186 35.4882L231.2 40.1952H220.243L220.256 44.6483C220.258 45.1301 220.35 45.5858 220.534 46.0155C220.717 46.4321 220.966 46.7967 221.279 47.1092C221.593 47.4217 221.958 47.6691 222.375 47.8514C222.805 48.0337 223.261 48.1248 223.743 48.1248H225.345C225.827 48.1248 226.276 48.0337 226.692 47.8514C227.121 47.6691 227.491 47.4217 227.803 47.1092C228.114 46.7967 228.361 46.4321 228.542 46.0155C228.723 45.5858 228.812 45.1301 228.811 44.6483L228.807 43.3202L231.211 43.7108L231.213 44.5116ZM228.783 35.3515C228.782 34.8697 228.689 34.4205 228.506 34.0038C228.322 33.5741 228.074 33.203 227.76 32.8905C227.447 32.578 227.075 32.3306 226.645 32.1483C226.228 31.9661 225.778 31.8749 225.296 31.8749H223.695C223.213 31.8749 222.758 31.9661 222.329 32.1483C221.912 32.3306 221.549 32.578 221.237 32.8905C220.925 33.203 220.679 33.5741 220.498 34.0038C220.317 34.4205 220.227 34.8697 220.229 35.3515L220.238 38.3202H228.792L228.783 35.3515ZM259.296 49.9998L259.258 37.2069H248.535L248.573 49.9998H246.053L245.97 21.9921H248.49L248.528 34.8046H259.25L259.212 21.9921H261.732L261.815 49.9998H259.296ZM280.393 44.5116C280.395 45.3189 280.241 46.0806 279.931 46.7967C279.633 47.5129 279.219 48.1379 278.686 48.6717C278.154 49.2056 277.53 49.6287 276.815 49.9412C276.1 50.2407 275.339 50.3905 274.531 50.3905H272.93C272.122 50.3905 271.36 50.2407 270.643 49.9412C269.926 49.6287 269.3 49.2056 268.764 48.6717C268.229 48.1379 267.804 47.5129 267.489 46.7967C267.188 46.0806 267.036 45.3189 267.033 44.5116L267.006 35.4882C267.004 34.6809 267.151 33.9192 267.449 33.203C267.759 32.4869 268.181 31.8619 268.713 31.328C269.245 30.7942 269.869 30.3775 270.584 30.078C271.299 29.7655 272.061 29.6093 272.868 29.6093H274.469C275.277 29.6093 276.039 29.7655 276.756 30.078C277.473 30.3775 278.099 30.7942 278.635 31.328C279.17 31.8619 279.589 32.4869 279.89 33.203C280.205 33.9192 280.363 34.6809 280.366 35.4882L280.393 44.5116ZM277.963 35.3515C277.962 34.8697 277.869 34.4205 277.686 34.0038C277.502 33.5741 277.254 33.203 276.94 32.8905C276.627 32.578 276.255 32.3306 275.825 32.1483C275.407 31.9661 274.958 31.8749 274.476 31.8749H272.875C272.393 31.8749 271.937 31.9661 271.508 32.1483C271.092 32.3306 270.728 32.578 270.417 32.8905C270.105 33.203 269.859 33.5741 269.678 34.0038C269.497 34.4205 269.407 34.8697 269.408 35.3515L269.436 44.6483C269.437 45.1301 269.53 45.5858 269.714 46.0155C269.897 46.4321 270.146 46.7967 270.459 47.1092C270.772 47.4217 271.138 47.6691 271.555 47.8514C271.985 48.0337 272.441 48.1248 272.923 48.1248H274.524C275.006 48.1248 275.455 48.0337 275.871 47.8514C276.3 47.6691 276.671 47.4217 276.982 47.1092C277.294 46.7967 277.54 46.4321 277.721 46.0155C277.902 45.5858 277.992 45.1301 277.991 44.6483L277.963 35.3515ZM297.772 49.9998L296.438 47.9686C295.893 48.7108 295.212 49.3032 294.393 49.7459C293.574 50.1756 292.676 50.3905 291.699 50.3905H291.094C290.286 50.3905 289.524 50.2407 288.807 49.9412C288.09 49.6287 287.464 49.2056 286.928 48.6717C286.393 48.1379 285.968 47.5129 285.653 46.7967C285.352 46.0806 285.2 45.3189 285.197 44.5116L285.154 29.9999H287.557L287.6 44.6483C287.602 45.1301 287.694 45.5858 287.878 46.0155C288.061 46.4321 288.31 46.7967 288.623 47.1092C288.936 47.4217 289.302 47.6691 289.719 47.8514C290.149 48.0337 290.605 48.1248 291.087 48.1248H292.689C293.17 48.1248 293.619 48.0337 294.035 47.8514C294.465 47.6691 294.835 47.4217 295.146 47.1092C295.458 46.7967 295.704 46.4321 295.885 46.0155C296.066 45.5858 296.156 45.1301 296.155 44.6483L296.111 29.9999H298.514L298.573 49.9998H297.772ZM317.113 44.9217C317.115 45.729 316.954 46.4712 316.631 47.1483C316.307 47.8123 315.866 48.3853 315.308 48.867C314.749 49.3488 314.1 49.7264 313.358 49.9998C312.63 50.2602 311.862 50.3905 311.055 50.3905H309.453C308.646 50.3905 307.871 50.2407 307.128 49.9412C306.397 49.6287 305.752 49.2056 305.19 48.6717C304.642 48.1379 304.197 47.5129 303.856 46.7967C303.529 46.0806 303.364 45.3189 303.361 44.5116L303.359 43.7108L305.76 43.3202L305.764 44.6483C305.766 45.1301 305.865 45.5858 306.061 46.0155C306.271 46.4321 306.545 46.7967 306.885 47.1092C307.224 47.4217 307.616 47.6691 308.059 47.8514C308.502 48.0337 308.965 48.1248 309.446 48.1248H311.048C311.53 48.1248 311.992 48.0532 312.434 47.91C312.876 47.7668 313.266 47.5649 313.604 47.3045C313.955 47.0311 314.227 46.7056 314.421 46.328C314.629 45.9504 314.732 45.5207 314.73 45.0389C314.728 44.3228 314.57 43.7368 314.256 43.2811C313.942 42.8254 313.525 42.4478 313.003 42.1483C312.494 41.8358 311.907 41.5819 311.243 41.3866C310.591 41.1783 309.92 40.9764 309.229 40.7811C308.538 40.5728 307.861 40.3384 307.196 40.078C306.544 39.8176 305.957 39.479 305.435 39.0624C304.926 38.6327 304.514 38.0988 304.2 37.4608C303.885 36.8228 303.727 36.0285 303.724 35.078C303.722 34.2707 303.876 33.5351 304.186 32.871C304.497 32.1939 304.918 31.6145 305.451 31.1327C305.983 30.651 306.6 30.2799 307.303 30.0194C308.018 29.746 308.779 29.6093 309.587 29.6093H310.993C311.8 29.6093 312.562 29.7655 313.279 30.078C313.996 30.3775 314.623 30.7942 315.158 31.328C315.694 31.8619 316.112 32.4869 316.414 33.203C316.728 33.9192 316.887 34.6809 316.889 35.4882L316.889 35.5663L314.488 35.9569L314.486 35.3515C314.485 34.8697 314.393 34.4205 314.209 34.0038C314.025 33.5741 313.777 33.203 313.464 32.8905C313.15 32.578 312.778 32.3306 312.348 32.1483C311.931 31.9661 311.481 31.8749 311 31.8749H309.593C309.112 31.8749 308.656 31.9465 308.227 32.0898C307.811 32.233 307.447 32.4413 307.135 32.7147C306.823 32.9752 306.577 33.2942 306.396 33.6718C306.214 34.0494 306.125 34.4791 306.126 34.9608C306.128 35.6509 306.286 36.2173 306.6 36.66C306.914 37.0897 307.325 37.4543 307.833 37.7538C308.355 38.0533 308.942 38.3072 309.594 38.5155C310.258 38.7108 310.929 38.9191 311.607 39.1405C312.298 39.3488 312.969 39.5897 313.621 39.8632C314.286 40.1366 314.873 40.4882 315.382 40.9178C315.904 41.3475 316.322 41.8879 316.637 42.5389C316.951 43.1769 317.11 43.9712 317.113 44.9217ZM335.08 44.5116C335.083 45.3189 334.929 46.0806 334.618 46.7967C334.321 47.5129 333.906 48.1379 333.374 48.6717C332.841 49.2056 332.218 49.6287 331.503 49.9412C330.787 50.2407 330.026 50.3905 329.219 50.3905H327.617C326.81 50.3905 326.048 50.2407 325.331 49.9412C324.614 49.6287 323.987 49.2056 323.452 48.6717C322.916 48.1379 322.491 47.5129 322.177 46.7967C321.875 46.0806 321.723 45.3189 321.721 44.5116L321.694 35.4882C321.692 34.6809 321.839 33.9192 322.136 33.203C322.447 32.4869 322.868 31.8619 323.4 31.328C323.933 30.7942 324.556 30.3775 325.272 30.078C325.987 29.7655 326.748 29.6093 327.555 29.6093H329.157C329.964 29.6093 330.726 29.7655 331.443 30.078C332.16 30.3775 332.787 30.7942 333.322 31.328C333.858 31.8619 334.276 32.4869 334.578 33.203C334.892 33.9192 335.051 34.6809 335.053 35.4882L335.067 40.1952H324.11L324.124 44.6483C324.125 45.1301 324.217 45.5858 324.401 46.0155C324.585 46.4321 324.833 46.7967 325.146 47.1092C325.46 47.4217 325.825 47.6691 326.242 47.8514C326.673 48.0337 327.129 48.1248 327.61 48.1248H329.212C329.694 48.1248 330.143 48.0337 330.559 47.8514C330.988 47.6691 331.358 47.4217 331.67 47.1092C331.981 46.7967 332.228 46.4321 332.409 46.0155C332.59 45.5858 332.68 45.1301 332.678 44.6483L332.674 43.3202L335.078 43.7108L335.08 44.5116ZM332.651 35.3515C332.649 34.8697 332.557 34.4205 332.373 34.0038C332.19 33.5741 331.941 33.203 331.628 32.8905C331.314 32.578 330.942 32.3306 330.512 32.1483C330.095 31.9661 329.645 31.8749 329.164 31.8749H327.562C327.08 31.8749 326.625 31.9661 326.196 32.1483C325.78 32.3306 325.416 32.578 325.104 32.8905C324.793 33.203 324.546 33.5741 324.365 34.0038C324.184 34.4205 324.094 34.8697 324.096 35.3515L324.105 38.3202H332.659L332.651 35.3515Z" fill="black"/>
</g>
<defs>
<filter id="filter0_d_356_3009" x="0.490723" y="0.368896" width="338.607" height="78.3032" filterUnits="userSpaceOnUse" color-interpolation-filters="sRGB">
<feFlood flood-opacity="0" result="BackgroundImageFix"/>
<feColorMatrix in="SourceAlpha" type="matrix" values="0 0 0 0 0 0 0 0 0 0 0 0 0 0 0 0 0 0 127 0" result="hardAlpha"/>
<feOffset dy="4"/>
<feGaussianBlur stdDeviation="2"/>
<feComposite in2="hardAlpha" operator="out"/>
<feColorMatrix type="matrix" values="0 0 0 0 0 0 0 0 0 0 0 0 0 0 0 0 0 0 0.25 0"/>
<feBlend mode="normal" in2="BackgroundImageFix" result="effect1_dropShadow_356_3009"/>
<feBlend mode="normal" in="SourceGraphic" in2="effect1_dropShadow_356_3009" result="shape"/>
</filter>
</defs>
</svg>
