<svg width="213" height="44" viewBox="0 0 213 44" fill="none" xmlns="http://www.w3.org/2000/svg">
<path fill-rule="evenodd" clip-rule="evenodd" d="M6.02868 20.6981L7.26748 20.4459C7.71796 20.3618 8.15438 20.2637 8.53447 20.1656L9.54804 19.9274C9.72082 19.8957 9.89042 19.8489 10.0548 19.7873C10.0548 19.2408 9.97035 18.7783 9.92812 18.386C9.88589 17.9936 9.84367 17.6432 9.81552 17.2369C9.78736 16.8305 9.73105 16.368 9.67474 15.8355C9.61843 15.303 9.56211 14.5603 9.44949 13.6354C9.25241 12.066 9.11163 10.8328 9.02716 10.1181C8.9427 9.40343 8.85824 9.08116 8.78785 9.36143C8.42184 10.7627 8.11213 11.8838 7.85873 12.8647C7.60534 13.8457 7.35195 14.7705 7.14079 15.6674C6.92963 16.5642 6.73255 17.3209 6.54954 18.1197C6.36653 18.9185 6.21169 19.7732 6.02868 20.6981ZM4.22677 22.5338C3.87484 22.5338 3.48066 22.5338 3.03018 22.5338C2.5797 22.5338 2.17146 22.5338 1.77729 22.5338C1.41811 22.5406 1.0593 22.5077 0.707411 22.4357C0.582752 22.4284 0.462276 22.3883 0.358374 22.3193C0.254472 22.2504 0.170867 22.1551 0.116139 22.0434C-0.038713 21.9173 -0.038713 21.7771 0.116139 21.609L0.524397 21.1886L1.77729 21.0624C2.12922 21.0624 2.453 21.0624 2.76271 20.9784L3.62143 20.8523L4.49423 20.7261C4.86024 19.3248 5.21218 17.9936 5.53596 16.7184C5.85975 15.4432 6.18352 14.182 6.47915 12.9348C6.77478 11.6876 7.08449 10.4124 7.36604 9.15119C7.64758 7.89 7.95728 6.53074 8.28106 5.14343C8.52038 4.80711 8.70339 4.63896 8.85824 4.62494C9.10678 4.6123 9.35581 4.6123 9.60434 4.62494C9.7592 5.43771 9.87182 6.11036 9.95628 6.65688C10.0407 7.2034 10.083 7.76393 10.1534 8.32446C10.2238 8.88499 10.2941 9.51554 10.3786 10.2022C10.4631 10.8888 10.5898 11.7576 10.7446 12.8086C10.8995 13.8596 10.9839 14.9387 11.1529 15.9756C11.3218 17.0126 11.4766 18.0777 11.6033 19.1847L13.4897 18.8624L15.0805 18.5541L16.2207 18.3579C16.5023 18.3018 16.6431 18.3018 16.6431 18.3579C16.7275 18.5821 16.6431 18.8063 16.2911 19.0165C15.9025 19.2663 15.4927 19.4821 15.0664 19.6611C14.5737 19.8573 14.0247 20.0675 13.4475 20.2497L11.913 20.7542C11.913 21.2306 12.0538 21.8191 12.1665 22.5338C12.2791 23.2485 12.4198 24.0052 12.5606 24.804C12.7014 25.6027 12.8562 26.4155 12.997 27.2283C13.1378 28.0411 13.2786 28.7697 13.3912 29.4423C13.5038 30.115 13.5883 30.6475 13.6446 31.0819C13.6946 31.327 13.6946 31.5795 13.6446 31.8246C13.3279 31.8852 12.9999 31.8358 12.7155 31.6845C12.5016 31.5351 12.2699 31.4127 12.0257 31.3201C11.8145 29.6806 11.5611 27.999 11.2655 26.2894C10.9699 24.5797 10.7306 22.8702 10.5616 21.1746L8.35145 21.679C7.46457 21.8892 6.53546 22.0714 5.53596 22.2115C5.3665 22.8203 5.23023 23.4378 5.12773 24.0613C4.99634 24.7339 4.86964 25.3785 4.74763 25.9951C4.62093 26.5977 4.5224 27.1582 4.42386 27.6347C4.38176 27.9605 4.30144 28.2803 4.18454 28.5875C3.99554 28.7378 3.76436 28.8259 3.5229 28.8398C3.38295 28.8648 3.23893 28.8549 3.10379 28.8109C2.96866 28.7668 2.84662 28.6901 2.74864 28.5875C2.77949 28.2429 2.83595 27.901 2.91756 27.5646C3.03018 27.0181 3.17095 26.4295 3.31172 25.7849L3.77628 23.8931C4.00152 23.3606 4.086 22.9122 4.22677 22.5338ZM139.37 30.171C139.215 30.3532 139.061 30.5214 138.892 30.6895C138.723 30.8542 138.567 31.0323 138.427 31.222C138.042 31.7201 137.725 32.2667 137.484 32.8476C137.16 33.5565 136.901 34.2928 136.71 35.0476C136.495 35.8419 136.349 36.653 136.273 37.472C136.179 38.1929 136.179 38.923 136.273 39.644C136.351 40.2029 136.596 40.7256 136.977 41.1434C137.162 41.3197 137.385 41.4507 137.629 41.5261C137.874 41.6015 138.132 41.6192 138.385 41.5778C138.638 41.5778 138.835 41.2275 138.99 40.709C139.153 40.0748 139.261 39.4278 139.314 38.7752C139.314 38.0185 139.412 37.1777 139.427 36.2669C139.441 35.356 139.427 34.4871 139.427 33.6463C139.427 32.8055 139.427 32.0769 139.342 31.4463C139.258 30.8157 139.314 30.3953 139.314 30.171H139.37ZM149.872 19.7171C149.436 19.9925 149.059 20.3494 148.76 20.7681C148.324 21.3312 147.956 21.9425 147.662 22.5899C147.314 23.3461 147.027 24.1286 146.803 24.9301C146.569 25.7629 146.423 26.6176 146.367 27.4805C146.891 27.6045 147.443 27.5296 147.915 27.2703C148.443 26.9823 148.919 26.6082 149.323 26.1633C149.791 25.6635 150.202 25.1137 150.548 24.5238C150.899 23.9323 151.191 23.308 151.421 22.66C151.617 22.1043 151.736 21.5243 151.772 20.9364C151.819 20.4815 151.715 20.0239 151.477 19.6331C151.409 19.4873 151.29 19.3713 151.142 19.3068C150.994 19.2422 150.828 19.2337 150.674 19.2827C150.36 19.3642 150.067 19.5124 149.816 19.7171H149.872ZM154.546 28.1251C154.799 28.1251 155.193 27.985 155.742 27.5646C156.395 27.0433 156.977 26.4404 157.474 25.7709C158.119 24.9508 158.671 24.0627 159.121 23.1224C159.609 22.1099 159.932 21.0267 160.078 19.9133H159.642C159.409 19.926 159.185 20.0037 158.994 20.1376C158.063 20.7386 157.232 21.4809 156.531 22.3377C155.917 23.0855 155.388 23.8985 154.954 24.762C154.611 25.4295 154.383 26.1495 154.278 26.892C154.137 27.5366 154.236 27.957 154.489 28.1531L154.546 28.1251ZM165.498 28.1251C165.751 28.1251 166.146 27.985 166.709 27.5646C167.357 27.0396 167.939 26.4371 168.44 25.7709C169.08 24.9503 169.628 24.0622 170.073 23.1224C170.565 22.1106 170.893 21.0274 171.044 19.9133H170.608C170.371 19.9277 170.143 20.0052 169.946 20.1376C169.019 20.7388 168.193 21.4813 167.497 22.3377C166.874 23.0785 166.344 23.8926 165.92 24.762C165.58 25.4317 165.347 26.1504 165.23 26.892C165.104 27.5366 165.202 27.957 165.442 28.1531L165.498 28.1251ZM201.818 22.8281C200.297 22.5198 198.031 24.748 197.51 25.827C197.068 26.7047 196.787 27.6537 196.68 28.6296C198.046 28.2563 199.293 27.537 200.297 26.5417C201.171 25.817 201.792 24.836 202.071 23.739C202.099 23.1925 202.015 23.0523 201.762 22.9122L201.818 22.8281ZM22.809 27.7888C21.0121 29.4853 19.4626 31.424 18.2057 33.5483C14.6018 39.1536 18.2057 45.9219 20.9085 37.4579C21.8213 34.2956 22.4572 31.0604 22.809 27.7888ZM22.6682 22.0854C22.8996 22.0809 23.1289 22.1292 23.3387 22.2263C23.5485 22.3235 23.7332 22.467 23.8789 22.6459C24.2167 23.0243 24.1745 24.1314 24.0197 25.7429C25.0208 25.1539 26.1414 24.7949 27.2997 24.6919C27.5531 24.818 27.6798 24.9021 27.6939 24.9441C27.7079 24.9862 27.6939 25.0422 27.5109 25.1403C26.6149 25.3931 25.7611 25.7755 24.9769 26.2754C24.585 26.4756 24.2207 26.7252 23.893 27.0181C23.6044 30.666 22.9296 34.2734 21.8799 37.7802C18.445 47.9258 12.6451 40.0924 17.1921 32.8896C18.6442 30.4387 20.5558 28.2884 22.8231 26.5556C23.1083 25.5682 23.0387 24.5126 22.626 23.5708C22.26 23.1504 21.4153 23.3746 20.8522 23.5708C20.5641 23.7202 20.2624 23.8422 19.9513 23.9351C19.8105 23.9351 19.2192 24.2014 19.0644 24.0192C18.9095 23.837 19.0644 23.9352 18.8955 23.711C18.7265 23.4868 18.7828 23.2485 19.1348 23.1925C20.6129 22.9543 23.0202 21.1465 21.9503 19.3668C21.2605 18.1757 18.8532 19.7171 17.727 20.7681C17.727 20.7681 17.4173 21.0765 17.3188 20.9784C17.2413 20.9106 17.1706 20.8355 17.1076 20.7542C17.015 20.662 16.9345 20.5584 16.8683 20.4459C16.7838 20.3057 17.0654 20.0675 17.0936 20.0395C19.4726 18.1057 22.7245 16.9986 23.5833 18.9464C23.7558 19.5014 23.761 20.0946 23.5984 20.6525C23.4357 21.2104 23.1123 21.7085 22.6682 22.0854ZM45.6848 28.1531C45.9382 28.1531 46.3465 28.0131 46.8814 27.5927C47.5384 27.072 48.1251 26.4691 48.627 25.7989C49.2623 24.9749 49.8096 24.0873 50.26 23.1504C50.754 22.1403 51.0774 21.0561 51.2173 19.9414H50.7809C50.5481 19.954 50.3237 20.0317 50.1333 20.1656C49.2062 20.7668 48.3796 21.5092 47.6838 22.3657C47.0605 23.1064 46.531 23.9207 46.1072 24.79C45.7603 25.4571 45.5272 26.1768 45.4174 26.92C45.347 27.5365 45.4314 27.957 45.6848 28.1531ZM59.7623 27.8168C60.8046 27.4187 61.7431 26.7912 62.5074 25.9811C63.0995 25.3228 63.5755 24.5694 63.9151 23.753C64.1975 23.1306 64.3553 22.4595 64.3797 21.7771C64.3797 21.2026 64.2671 20.8382 64.0418 20.6981C63.8392 20.5554 63.6022 20.4686 63.355 20.4465C63.1078 20.4243 62.8591 20.4676 62.6341 20.572C62.1694 20.8402 61.7269 21.1447 61.3108 21.4828C60.967 21.8109 60.6515 22.1672 60.3676 22.5478C59.9734 23.0523 59.5652 23.6269 59.1569 24.2575C58.7766 24.867 58.4334 25.4987 58.1293 26.1493C57.8685 26.668 57.7244 27.237 57.707 27.8168C57.8193 27.9506 57.9726 28.0441 58.1434 28.0831C58.3528 28.1212 58.5675 28.1212 58.7769 28.0831C59.1178 28.0487 59.4507 27.9588 59.7623 27.8168ZM64.5205 19.4089L64.8724 19.5911C65.0266 19.6796 65.1608 19.7989 65.2666 19.9414C65.4056 20.1138 65.515 20.3079 65.5904 20.5159C65.6827 20.8105 65.7255 21.1183 65.717 21.4268C65.6791 22.6639 65.3462 23.8744 64.7457 24.9582C64.1797 25.9615 63.4467 26.8617 62.5778 27.6206C61.8043 28.3034 60.9186 28.8485 59.9594 29.2322C59.2404 29.5542 58.4496 29.6846 57.6647 29.6106C57.6647 32.0349 57.6647 34.0527 57.6647 35.6782C57.6647 37.3038 57.6647 38.6351 57.7351 39.6721C57.8055 40.709 57.7351 41.4797 57.7351 42.0122C57.7368 42.3795 57.6991 42.7459 57.6225 43.1052C57.6225 43.3014 57.4395 43.3995 57.2846 43.3855C57.0762 43.367 56.8692 43.3342 56.6653 43.2874C56.6653 43.3575 56.5808 43.2874 56.5385 43.1052C56.4963 42.9231 56.5385 42.6148 56.5385 42.1664C56.5385 41.7179 56.5385 41.0173 56.5385 40.0644C56.5385 39.9943 56.5385 39.5599 56.5385 38.7752C56.5385 37.9905 56.5385 36.9955 56.5385 35.8044C56.5385 34.6133 56.5386 33.324 56.4682 31.8946C56.3978 30.4653 56.3837 29.092 56.3415 27.6907C56.3415 27.0741 56.3415 26.4856 56.257 25.9251C56.257 25.9951 56.1725 26.0792 56.1303 26.1633L55.708 26.878C55.6248 27.0488 55.5208 27.2088 55.3983 27.3544C55.1386 27.6651 54.846 27.9471 54.5255 28.1952C54.1597 28.4959 53.7577 28.7501 53.3289 28.9519C52.9437 29.1215 52.5252 29.2029 52.1042 29.1901C51.8996 29.1704 51.7038 29.0981 51.5359 28.9801C51.3681 28.8622 51.234 28.7027 51.1469 28.5175C51.0006 28.1659 50.9196 27.7908 50.9076 27.4105C50.9076 26.9621 50.9076 26.5276 50.9076 26.0092C50.9076 25.4907 50.9076 25.1403 51.0343 24.762C51.161 24.3836 51.1187 24.1173 51.1469 23.9351C50.6151 24.9146 50.008 25.8516 49.3309 26.7378C48.7594 27.5056 48.0871 28.1938 47.3319 28.7837C46.8239 29.224 46.1975 29.5066 45.53 29.5965C44.981 29.5965 44.5586 29.3163 44.2489 28.6437C44.0792 27.9248 44.0792 27.1765 44.2489 26.4576C44.3696 25.7161 44.5922 24.9946 44.9106 24.3135C45.4134 23.4585 45.9681 22.6349 46.5717 21.8472C47.1057 21.135 47.725 20.4903 48.4159 19.9274C49.024 19.425 49.7211 19.04 50.4712 18.7923C51.1908 18.5491 51.9597 18.4866 52.7095 18.6101L52.5406 19.549C52.442 20.0254 52.3576 20.586 52.259 21.2166C52.1605 21.8472 52.0619 22.5198 51.9915 23.2345C51.9211 23.9492 51.8789 24.6358 51.8648 25.2104C51.8389 25.7455 51.8767 26.2817 51.9775 26.8079C52.0619 27.2423 52.2027 27.5225 52.4139 27.6206C52.7035 27.7504 53.0253 27.7918 53.3386 27.7394C53.6518 27.687 53.9424 27.5433 54.1735 27.3264C54.8874 26.7566 55.5386 26.1131 56.1162 25.4066C56.1162 24.9021 56.1162 24.4117 56.0458 24.0053C55.9802 22.8562 55.8957 21.9733 55.7924 21.3568C55.7924 21.3568 55.7924 21.1746 55.7924 20.9784C55.7924 20.7822 55.7924 20.53 55.6939 20.2217C55.5954 19.9134 55.6094 19.6051 55.5391 19.2407C55.4687 18.8764 55.4124 18.5681 55.342 18.2317C55.6359 18.187 55.9365 18.2361 56.2007 18.3719C56.364 18.487 56.5149 18.6184 56.6512 18.7642C56.8582 19.5127 57.0041 20.2766 57.0876 21.0484C57.2283 22.0994 57.3832 23.5147 57.5521 25.2524C57.6466 24.8894 57.7787 24.5372 57.9463 24.2014C58.2022 23.7165 58.4891 23.2485 58.805 22.8001C59.1656 22.263 59.5706 21.7568 60.0157 21.2867C60.4291 20.8043 60.9021 20.3758 61.4234 20.0114C61.8832 19.6781 62.3976 19.4269 62.9438 19.2688C63.4663 19.1215 64.0242 19.1611 64.5205 19.3808V19.4089ZM175.38 30.7036C175.38 30.7736 175.38 30.8016 175.268 30.7036L174.93 30.5354C174.801 30.4559 174.679 30.3669 174.564 30.2691C174.465 30.1711 174.395 30.087 174.395 30.0169C174.522 29.1901 174.691 28.3774 174.902 27.5506C174.689 27.7742 174.464 27.9848 174.226 28.1812C173.855 28.4822 173.449 28.7363 173.015 28.9379C172.63 29.1075 172.212 29.1889 171.791 29.1761C171.587 29.1538 171.392 29.0804 171.225 28.9628C171.057 28.8451 170.923 28.6871 170.833 28.5035C170.692 28.1509 170.616 27.7759 170.608 27.3965C170.577 26.9299 170.577 26.4617 170.608 25.9951C170.621 25.5776 170.659 25.1611 170.721 24.7479C170.721 24.3836 170.805 24.1033 170.833 23.9211C170.301 24.8973 169.699 25.834 169.031 26.7238C168.452 27.4851 167.781 28.1723 167.032 28.7697C166.518 29.2083 165.887 29.4905 165.216 29.5825C164.667 29.5825 164.231 29.3023 163.935 28.6296C163.849 28.305 163.807 27.9704 163.809 27.6347C163.635 27.8081 163.452 27.9718 163.26 28.1251C162.894 28.4258 162.492 28.68 162.063 28.8819C161.678 29.0515 161.259 29.1328 160.838 29.1201C160.633 29.0987 160.435 29.0259 160.266 28.9083C160.096 28.7907 159.959 28.6321 159.867 28.4474C159.732 28.0929 159.656 27.719 159.642 27.3403C159.642 26.8919 159.642 26.4575 159.642 25.939C159.642 25.4205 159.712 25.0703 159.754 24.6919C159.797 24.3136 159.839 24.0473 159.867 23.8651C159.345 24.8473 158.743 25.7847 158.065 26.6677C157.49 27.4323 156.818 28.12 156.066 28.7137C155.558 29.154 154.932 29.4364 154.264 29.5264C153.701 29.5264 153.279 29.2462 152.983 28.5735C152.8 27.8563 152.8 27.1047 152.983 26.3875C153.139 25.6203 153.404 24.8794 153.771 24.1874C154.269 23.3293 154.824 22.5054 155.433 21.7211C155.962 21.0094 156.576 20.3647 157.263 19.8013C157.878 19.3011 158.579 18.9164 159.332 18.6661C160.051 18.4218 160.821 18.3593 161.57 18.4841L161.401 19.4229C161.303 19.8994 161.218 20.4599 161.12 21.0905C161.021 21.7211 160.923 22.3937 160.852 23.1084C160.782 23.8231 160.74 24.5097 160.712 25.0842C160.69 25.6199 160.732 26.1562 160.838 26.6818C160.923 27.1162 161.064 27.3965 161.275 27.4946C161.565 27.6225 161.886 27.6629 162.199 27.6105C162.512 27.5582 162.802 27.4155 163.034 27.2002C163.35 26.9563 163.651 26.6943 163.935 26.4155C164.096 25.6477 164.366 24.9068 164.738 24.2154C165.231 23.3577 165.781 22.5337 166.385 21.7491C166.923 21.0402 167.542 20.3959 168.229 19.8293C168.839 19.3295 169.536 18.9449 170.284 18.6942C171.004 18.451 171.773 18.3885 172.523 18.512L172.354 19.451C172.269 19.9274 172.171 20.4879 172.072 21.1185C171.974 21.7491 171.889 22.4217 171.805 23.1364C171.72 23.851 171.692 24.5377 171.678 25.1123C171.659 25.6472 171.697 26.1827 171.791 26.7098C171.8 26.8685 171.844 27.0233 171.92 27.1636C171.995 27.3038 172.1 27.4262 172.227 27.5225C172.517 27.6523 172.838 27.6937 173.152 27.6413C173.465 27.5889 173.756 27.4452 173.987 27.2283C174.493 26.8503 174.964 26.4282 175.394 25.9671C175.606 25.3645 175.845 24.748 176.098 24.1594C176.921 22.2501 177.935 20.4285 179.125 18.7223C179.359 18.4454 179.692 18.2696 180.054 18.2317C180.187 18.2261 180.319 18.2624 180.43 18.3353C180.541 18.4083 180.626 18.5142 180.673 18.6382C180.88 19.299 181.04 19.9732 181.152 20.6561C181.279 21.4548 181.42 22.3236 181.56 23.2345C181.701 24.1453 181.856 25.0702 182.025 26.0371C182.194 27.004 182.405 27.8449 182.63 28.6437C182.757 29.064 182.743 29.3303 182.63 29.4144C182.518 29.4984 182.109 29.4144 181.56 29.2462C181.476 29.2462 181.391 28.9239 181.293 28.2793C181.194 27.6347 181.068 26.8779 180.927 25.9671C180.786 25.0562 180.631 24.0893 180.448 23.1644C180.292 22.2719 180.056 21.395 179.744 20.544C179.674 20.544 179.519 20.6421 179.294 20.9924C179.069 21.3427 178.801 21.7911 178.506 22.3937C178.21 22.9963 177.886 23.6129 177.548 24.3416C177.21 25.0703 176.901 25.827 176.605 26.5977C176.309 27.3684 176.07 28.1111 175.859 28.8257C175.652 29.4292 175.492 30.0476 175.38 30.6755V30.7036ZM97.5039 28.1812C97.7432 28.1812 98.1515 28.041 98.7005 27.6206C99.3493 27.0956 99.9308 26.4932 100.432 25.827C101.077 25.0098 101.625 24.1211 102.065 23.1785C102.557 22.1666 102.885 21.0835 103.036 19.9695H102.628C102.391 19.9838 102.163 20.0612 101.966 20.1936C101.039 20.7949 100.213 21.5373 99.517 22.3937C98.8985 23.138 98.3694 23.9516 97.9403 24.818C97.5974 25.4855 97.369 26.2055 97.2646 26.948C97.1661 27.5366 97.2505 27.957 97.5039 28.1531V28.1812ZM108.456 28.1812C108.71 28.1812 109.104 28.041 109.653 27.6206C110.308 27.1031 110.891 26.4998 111.384 25.827C112.029 25.0069 112.581 24.1187 113.031 23.1785C113.525 22.1684 113.849 21.0842 113.989 19.9695H113.552C113.32 19.9842 113.096 20.0617 112.905 20.1936C111.978 20.7949 111.151 21.5373 110.455 22.3937C109.833 23.1379 109.299 23.9514 108.864 24.818C108.521 25.4855 108.293 26.2055 108.189 26.948C108.118 27.5366 108.259 27.957 108.456 28.1531V28.1812ZM115.495 18.6522L115.326 19.5911C115.241 20.0675 115.143 20.6281 115.044 21.2586C114.946 21.8892 114.847 22.5619 114.777 23.2766C114.707 23.9912 114.664 24.6778 114.636 25.2524C114.628 25.7877 114.671 26.3225 114.763 26.8499C114.847 27.2843 114.988 27.5646 115.199 27.6627C115.489 27.7925 115.811 27.8338 116.124 27.7814C116.437 27.729 116.728 27.5853 116.959 27.3684C117.736 26.7389 118.443 26.0296 119.071 25.2524C119.141 25.2524 119.155 25.3505 119.071 25.5607C119 25.7872 118.9 26.0037 118.775 26.2053L118.353 26.92C118.269 27.0908 118.165 27.2509 118.043 27.3965C117.78 27.7039 117.487 27.9854 117.17 28.2372C116.804 28.5379 116.402 28.7922 115.974 28.994C115.588 29.1636 115.17 29.245 114.749 29.2322C114.557 29.1929 114.379 29.1071 114.229 28.9823C114.079 28.8576 113.963 28.6979 113.89 28.5175C113.749 28.1649 113.673 27.7899 113.665 27.4105C113.634 26.9439 113.634 26.4757 113.665 26.0092C113.665 25.5607 113.665 25.1403 113.763 24.762L113.89 23.9351C113.358 24.9146 112.751 25.8516 112.074 26.7378C111.499 27.5024 110.827 28.19 110.075 28.7837C109.567 29.224 108.941 29.5066 108.273 29.5965C107.724 29.5965 107.288 29.3163 106.992 28.6437C106.906 28.319 106.863 27.9844 106.865 27.6487C106.692 27.8221 106.508 27.9858 106.316 28.1391C105.946 28.4401 105.539 28.6943 105.106 28.8959C104.721 29.0655 104.302 29.1469 103.881 29.1341C103.678 29.1105 103.484 29.0366 103.316 28.9191C103.149 28.8016 103.014 28.6443 102.924 28.4615C102.789 28.1069 102.713 27.7331 102.698 27.3544C102.667 26.8878 102.667 26.4196 102.698 25.953C102.698 25.5046 102.769 25.0843 102.811 24.7059C102.853 24.3276 102.91 24.0613 102.924 23.8791C102.402 24.8613 101.799 25.7987 101.122 26.6818C100.543 27.4431 99.8713 28.1303 99.1228 28.7277C98.6114 29.1712 97.9795 29.4539 97.3068 29.5404C96.7578 29.5404 96.3355 29.2602 96.0399 28.5875C95.8563 27.8703 95.8563 27.1187 96.0399 26.4015C96.189 25.6326 96.4549 24.8907 96.8282 24.2014C97.3263 23.3467 97.8764 22.5231 98.4752 21.7351C99.0142 21.0225 99.6382 20.3778 100.333 19.8152C100.939 19.316 101.63 18.9312 102.375 18.6802C103.094 18.437 103.863 18.3744 104.613 18.498C104.613 18.6521 104.529 18.9605 104.444 19.4369C104.36 19.9134 104.261 20.4739 104.177 21.1045C104.092 21.7351 103.98 22.4078 103.895 23.1224C103.811 23.8371 103.782 24.5237 103.768 25.0983C103.749 25.6332 103.787 26.1687 103.881 26.6958C103.891 26.8545 103.935 27.0093 104.01 27.1495C104.086 27.2898 104.19 27.4123 104.317 27.5086C104.61 27.6377 104.933 27.6787 105.249 27.6264C105.564 27.574 105.857 27.4308 106.091 27.2143C106.373 27.0041 106.654 26.7378 106.992 26.4295C107.154 25.6642 107.419 24.9241 107.78 24.2294C108.278 23.3714 108.833 22.5474 109.442 21.7631C109.976 21.0509 110.595 20.4062 111.286 19.8433C111.894 19.3409 112.591 18.956 113.341 18.7082C114.056 18.5047 114.809 18.4758 115.537 18.6242L115.495 18.6522ZM123.632 16.326C123.955 16.7604 124.279 17.1668 124.561 17.5732C124.842 17.9795 125.138 18.3859 125.419 18.8063C125.701 19.2267 126.025 19.7032 126.349 20.2077C126.672 20.7121 127.052 21.3287 127.489 21.9874C127.756 21.2727 127.996 20.586 128.193 19.9695C128.405 19.2732 128.561 18.5608 128.657 17.8394C128.657 17.6292 128.84 17.5732 129.08 17.6853L129.657 17.9375C129.727 18.185 129.727 18.4467 129.657 18.6942C129.601 19.0356 129.521 19.3728 129.417 19.7032C129.305 20.0535 129.178 20.3898 129.051 20.6981C128.925 21.0064 128.84 21.2586 128.798 21.4268L128.615 21.8612L128.446 22.3657C128.446 22.5618 128.305 22.772 128.221 22.9682C128.812 24.3695 129.361 25.5888 129.882 26.6257C130.284 27.3823 130.637 28.164 130.938 28.9659C130.938 29.1481 130.797 29.1761 130.501 29.064C130.223 28.949 129.966 28.7879 129.741 28.5875C129.432 27.971 129.108 27.3684 128.756 26.7939C128.404 26.2194 128.038 25.5747 127.658 24.846C127.545 25.1964 127.376 25.6027 127.193 26.0652C127.01 26.5276 126.799 26.9901 126.616 27.4665L126.011 28.8678L125.476 30.1851C125.342 30.3775 125.17 30.5399 124.969 30.6616C124.721 30.7096 124.464 30.6751 124.237 30.5635C124.687 29.4704 125.039 28.5736 125.307 27.9149C125.574 27.2563 125.8 26.6958 125.968 26.2333C126.137 25.7709 126.292 25.3225 126.419 24.9021C126.546 24.4817 126.701 23.9352 126.869 23.2906C126.602 22.9122 126.292 22.4498 125.94 21.8893C125.588 21.3287 125.279 20.7682 124.927 20.2077L123.955 18.6101C123.722 18.2229 123.448 17.8612 123.139 17.5311C123.054 17.4049 122.996 17.2625 122.97 17.1129C122.943 16.9633 122.948 16.8098 122.984 16.6623C123.125 16.354 123.322 16.2279 123.744 16.298L123.632 16.326ZM38.984 28.9379C39.0546 29.4727 39.0546 30.0146 38.984 30.5494C38.8689 30.5818 38.7471 30.5818 38.632 30.5494C38.5376 30.51 38.4516 30.4529 38.3786 30.3813L38.1252 30.1991C38.064 30.0872 37.9772 29.9912 37.8719 29.9188C37.9563 27.9009 37.8719 26.0372 37.8719 24.3135C37.534 24.6919 37.1821 25.0842 36.8161 25.4486L35.5772 26.7098L34.3103 27.971C33.8739 28.3914 33.4938 28.7697 33.17 29.1201C32.9534 29.2689 32.7094 29.3737 32.452 29.4284C32.2029 29.4066 31.9714 29.2914 31.8045 29.106C32.7617 28.1391 33.5219 27.3684 34.085 26.7799C34.6481 26.1913 35.1408 25.7008 35.4928 25.2945C35.8447 24.8881 36.253 24.4817 36.5767 24.0893C36.9005 23.697 37.1258 23.4167 37.4777 22.9822C37.2102 22.702 36.9287 22.3656 36.619 22.0013L35.3801 20.4739C34.9578 19.9554 34.5496 19.479 34.1695 19.0726C33.8909 18.7129 33.5695 18.3882 33.2122 18.1057C33.1093 17.9955 33.031 17.8648 32.9824 17.7223C32.9339 17.5798 32.9163 17.4286 32.9307 17.2789C32.9307 16.9425 33.1278 16.7885 33.4938 16.8165L34.5918 17.9095L35.6195 19.0165C35.9573 19.3948 36.3374 19.8153 36.7316 20.2777L37.7452 21.4549C37.7452 20.6981 37.7452 19.9554 37.7452 19.2407C37.7452 18.9324 37.7452 18.5962 37.7452 18.2178C37.7452 17.8394 37.7452 17.4611 37.7452 17.0827C37.7452 16.7044 37.7452 16.3961 37.7452 16.1018C37.7449 15.8912 37.6917 15.6841 37.5903 15.4992C37.7481 15.3923 37.9248 15.3162 38.1112 15.275C38.4019 15.2586 38.6933 15.2586 38.984 15.275C38.984 17.0967 38.984 18.9044 38.984 20.6841V21.5109C39.5752 20.8803 40.1383 20.2777 40.617 19.7171C41.1429 19.0855 41.6139 18.4105 42.0247 17.6993C42.1796 17.5171 42.3344 17.5171 42.5174 17.6993C42.6705 17.8413 42.8161 17.9909 42.9538 18.1477C42.9063 18.4258 42.7956 18.6895 42.63 18.9185C42.4189 19.2268 42.1796 19.535 41.9121 19.8573C41.6446 20.1796 41.3631 20.4739 41.0956 20.7402C40.8281 21.0064 40.617 21.2306 40.4903 21.3987L40.1243 21.7771C39.716 22.1975 39.3218 22.6459 38.9417 23.0804C39.9835 24.3836 41.0252 25.4486 41.7572 26.4295C42.4541 27.2639 43.0937 28.1441 43.6718 29.064C43.7985 29.9188 42.813 29.7927 42.5737 29.6385C42.1796 29.064 41.3208 27.8168 40.8844 27.2843C40.2543 26.4276 39.5627 25.6174 38.815 24.8601C38.7905 26.2133 38.8611 27.5665 39.0262 28.9099L38.984 28.9379ZM149.464 6.86703C149.627 5.91165 149.627 4.93568 149.464 3.9803C149.376 3.28409 149.017 2.65001 148.464 2.21462C148.223 2.10612 147.967 2.03527 147.704 2.00448C147.421 1.94632 147.129 1.94632 146.845 2.00448C146.501 2.18575 146.198 2.43627 145.955 2.74021C145.713 3.04414 145.537 3.39488 145.438 3.77016C145.121 4.74745 144.922 5.75883 144.846 6.78295C144.747 7.97601 144.718 9.17393 144.762 10.3703C144.762 11.6175 145.029 12.5284 145.058 13.6354C145.058 13.8877 145.058 13.9998 145.058 13.9858L145.297 13.7896C145.714 13.346 146.104 12.878 146.465 12.3882C146.916 11.7717 147.352 11.1411 147.76 10.4965C148.143 9.87124 148.49 9.22566 148.802 8.56266C149.092 8.01224 149.328 7.43499 149.506 6.83906L149.464 6.86703ZM144.086 16.8585C143.931 16.9566 143.481 17.5732 143.256 17.7694C143.006 17.987 142.743 18.1882 142.467 18.3719C142.149 18.5724 141.815 18.7459 141.468 18.8904C141.079 19.0456 140.661 19.1127 140.243 19.0866L140.088 18.9885L139.905 18.8624C139.905 18.8624 139.835 18.7643 139.905 18.7082C139.976 18.6522 140.018 18.6241 140.173 18.5961C140.569 18.4965 140.942 18.3203 141.271 18.0776C141.698 17.7713 142.098 17.4291 142.467 17.0547C142.833 16.7046 143.163 16.3198 143.453 15.9056C143.741 15.5574 143.961 15.158 144.1 14.7284C143.491 11.5334 143.439 8.25801 143.945 5.04532C144.025 4.46362 144.162 3.8911 144.354 3.33575C144.488 2.98858 144.673 2.66284 144.903 2.36883L145.621 1.52799C145.882 1.28078 146.181 1.0773 146.508 0.92543C146.995 0.696409 147.532 0.590564 148.07 0.61718C149.351 0.61718 150.224 1.58409 150.703 3.5039C150.787 4.23484 150.787 4.97297 150.703 5.70391C150.643 6.31854 150.515 6.92482 150.322 7.51167C150.168 8.02952 149.975 8.53538 149.745 9.02512C149.534 9.47355 149.351 9.8939 149.196 10.3003L148.506 11.5054C148.267 11.8978 148 12.3182 147.676 12.7526C147.352 13.187 147 13.6775 146.606 14.1539C146.212 14.6304 145.775 15.2049 145.297 15.8215C145.353 16.7557 145.409 17.6525 145.466 18.512C145.55 19.577 145.621 20.5579 145.677 21.4688C145.733 22.3797 145.804 23.1645 145.846 23.8091C145.969 23.3915 146.125 22.984 146.31 22.5899C146.553 22.0335 146.836 21.4949 147.155 20.9784C147.502 20.4082 147.897 19.869 148.338 19.3668C148.736 18.8975 149.212 18.4994 149.745 18.1897C150.095 18.0408 150.465 17.9462 150.843 17.9095C151.103 17.8864 151.365 17.9299 151.604 18.0356C151.809 18.118 151.993 18.2476 152.138 18.4139C152.253 18.5437 152.361 18.6794 152.462 18.8204C152.772 19.623 152.879 20.4894 152.772 21.3427C152.678 22.3064 152.44 23.2509 152.068 24.1454C151.681 25.0836 151.139 25.9505 150.463 26.7098C149.825 27.4541 149.013 28.0313 148.098 28.3913C147.751 28.5529 147.38 28.6616 147 28.7137H146.325C146.148 28.7537 145.965 28.7519 145.79 28.7087C145.615 28.6654 145.452 28.5818 145.315 28.4646C145.178 28.3473 145.071 28.1998 145.002 28.0337C144.933 27.8677 144.903 27.6879 144.917 27.5086L144.832 26.3734C143.969 26.612 143.148 26.9807 142.397 27.4665C141.684 27.9527 140.998 28.4766 140.342 29.036C140.342 29.8347 140.342 30.7035 140.342 31.6284C140.342 32.5533 140.342 33.4781 140.342 34.431C140.342 35.3839 140.342 36.2668 140.342 37.2337C140.343 38.0485 140.296 38.8627 140.201 39.6721C140.129 40.3032 140.002 40.9267 139.821 41.5358C139.726 41.9426 139.492 42.3041 139.159 42.5588C138.95 42.6894 138.714 42.7709 138.469 42.797C138.208 42.832 137.943 42.832 137.681 42.797C137.422 42.7708 137.167 42.7144 136.921 42.6288C136.705 42.5558 136.508 42.4362 136.344 42.2785C135.85 41.7631 135.497 41.1314 135.316 40.4428C135.111 39.6558 135.012 38.8453 135.02 38.0324C135.024 37.1278 135.123 36.226 135.316 35.3419C135.518 34.4346 135.791 33.5443 136.132 32.6794C136.448 31.8609 136.864 31.0844 137.371 30.3673C137.799 29.7416 138.344 29.204 138.976 28.7837C139.046 27.3824 139.089 26.0932 139.089 24.804C138.789 25.5372 138.422 26.2409 137.991 26.9059C137.548 27.6224 136.94 28.223 136.217 28.6576C135.914 28.8354 135.565 28.9197 135.214 28.8997C134.863 28.8798 134.526 28.7565 134.246 28.5455C133.668 28.0529 133.309 27.3528 133.247 26.5977C133.12 25.5747 133.021 24.7339 132.951 24.0473C132.881 23.3606 132.81 22.7441 132.754 22.1415C132.698 21.5389 132.669 20.9223 132.627 20.2637C132.585 19.6051 132.529 18.8624 132.458 17.8254C132.642 17.7692 132.838 17.7692 133.021 17.8254C133.231 17.8482 133.428 17.9365 133.584 18.0776C133.669 18.0776 133.725 18.2738 133.739 18.6661C133.753 19.0585 133.739 19.5911 133.824 20.2077C133.908 20.8242 133.824 21.5109 133.922 22.2536C134.021 22.9963 134.063 23.6549 134.176 24.3556C134.274 24.947 134.424 25.5285 134.626 26.0932C134.684 26.2994 134.782 26.4922 134.915 26.6606C135.048 26.8289 135.213 26.9694 135.4 27.0741C135.978 27.3403 136.639 26.92 137.371 25.7709C138.313 24.0597 138.92 22.1861 139.159 20.2497C139.159 20.2497 139.244 20.2497 139.412 20.2497C139.584 20.2751 139.753 20.3126 139.919 20.3618L140.412 20.544C140.553 20.614 140.637 20.6841 140.637 20.7402C140.634 21.2084 140.606 21.6762 140.553 22.1415C140.553 22.66 140.44 23.2345 140.384 23.8651C140.328 24.4957 140.271 25.1543 140.257 25.8549C140.243 26.5556 140.257 27.2563 140.257 27.9569C140.898 27.3971 141.632 26.9514 142.425 26.6397C143.128 26.3554 143.867 26.167 144.621 26.0792H144.748C144.748 25.4486 144.663 24.846 144.621 24.2435C144.579 23.6409 144.508 22.674 144.452 21.8472C144.396 21.0204 144.325 20.2217 144.269 19.4369C144.213 18.6522 144.142 17.9375 144.1 17.2509L144.086 16.8585ZM77.7673 28.1812C78.0207 28.1812 78.4149 28.041 78.9639 27.6206C79.6163 27.0994 80.1983 26.4966 80.6954 25.827C81.3403 25.0069 81.8926 24.1187 82.3425 23.1785C82.8282 22.1652 83.1512 21.0824 83.2998 19.9695H82.9197C82.6829 19.9838 82.4544 20.0612 82.258 20.1936C81.3417 20.7979 80.5209 21.5346 79.8226 22.3797C79.1979 23.1273 78.6639 23.9457 78.2319 24.818C77.8952 25.4881 77.6672 26.207 77.5562 26.948C77.4717 27.5366 77.5562 27.957 77.8096 28.1531L77.7673 28.1812ZM84.8061 18.6522L84.6371 19.5911C84.5527 20.0675 84.4541 20.6281 84.3556 21.2586C84.257 21.8892 84.1585 22.5619 84.0881 23.2766C84.0177 23.9912 83.9614 24.6778 83.9614 25.2524C83.9457 25.7868 83.9787 26.3215 84.06 26.8499C84.1585 27.2843 84.2993 27.5646 84.4964 27.6627C84.7885 27.7919 85.1123 27.8328 85.4276 27.7805C85.7429 27.7282 86.0359 27.5849 86.2701 27.3684C86.9209 26.8526 87.5154 26.2702 88.0439 25.6308C88.2128 25.1823 88.3958 24.7339 88.5788 24.2995C89.4003 22.3871 90.4194 20.5649 91.6195 18.8624C91.8505 18.5887 92.1779 18.4133 92.5346 18.3719C92.6695 18.3654 92.8032 18.401 92.9168 18.4739C93.0304 18.5468 93.1183 18.6532 93.1681 18.7783C93.3687 19.4396 93.5239 20.1138 93.6326 20.7962C93.7593 21.5949 93.9001 22.4638 94.0408 23.3747C94.1816 24.2855 94.3365 25.2104 94.5195 26.1773C94.7025 27.1442 94.8996 27.985 95.1248 28.7837C95.2375 29.2041 95.2234 29.4704 95.1248 29.5545C94.7548 29.6168 94.3743 29.5578 94.0408 29.3863C93.9705 29.3863 93.8719 29.064 93.7875 28.4194C93.703 27.7748 93.5622 27.0181 93.4214 26.1073C93.2807 25.1964 93.1117 24.2295 92.9287 23.3046C92.7765 22.4127 92.5457 21.5357 92.2389 20.6841C92.1545 20.6841 92.0137 20.7822 91.7885 21.1325C91.5632 21.4828 91.2958 21.9312 90.9861 22.5338C90.6764 23.1364 90.3666 23.753 90.0288 24.4817C89.6909 25.2104 89.3812 25.9671 89.0856 26.7378C88.79 27.5085 88.5507 28.2513 88.3536 28.9659C88.1765 29.58 88.054 30.2083 87.9876 30.8437C87.9876 30.9137 87.9876 30.9417 87.8609 30.8437L87.523 30.6755C87.3967 30.5993 87.2787 30.51 87.1711 30.4092C87.0585 30.3158 87.0021 30.2318 87.0021 30.157C87.1428 29.1531 87.3545 28.1604 87.6356 27.1862C87.5717 27.2887 87.5011 27.3871 87.4245 27.4805C87.1613 27.788 86.869 28.0695 86.5517 28.3213C86.1884 28.6287 85.7802 28.8792 85.341 29.064C84.959 29.2448 84.5389 29.3313 84.1163 29.3163C83.913 29.2927 83.7188 29.2188 83.5516 29.1013C83.3843 28.9838 83.2494 28.8265 83.159 28.6437C83.0311 28.2873 82.9552 27.9144 82.9338 27.5366C82.9338 27.0881 82.9338 26.6537 82.9338 26.1352C82.9338 25.6167 83.0042 25.2664 83.0605 24.888C83.1168 24.5097 83.1449 24.2435 83.159 24.0613C82.6412 25.0458 82.0383 25.9835 81.3571 26.8639C80.7854 27.6357 80.1132 28.3284 79.3581 28.9238C78.8466 29.3673 78.2148 29.6501 77.5421 29.7366C77.0071 29.7366 76.5708 29.4564 76.2751 28.7837C76.0916 28.0665 76.0916 27.3149 76.2751 26.5977C76.3333 26.2934 76.4133 25.9937 76.5144 25.7008C75.7402 26.2473 73.4596 27.7328 72.3898 28.4334C69.0112 30.6615 67.4626 29.7366 69.3631 26.4996C69.7995 25.7429 70.2077 24.9862 70.6019 24.2294C70.9961 23.4727 71.4466 22.9402 71.7703 22.1835C72.3616 20.7822 72.3335 20.1796 71.9534 19.8433C71.5733 19.507 70.9116 19.4089 69.9121 20.2217C69.1801 20.8102 68.2651 21.8332 67.5893 22.4918C66.9136 23.1504 66.9277 23.3746 66.4491 23.1785C66.1957 23.0663 65.9845 22.8701 66.1816 22.5198C66.3787 22.1695 66.7729 21.8472 67.1529 21.4268C68.046 20.2933 69.15 19.3417 70.4048 18.6242C70.8675 18.3916 71.3943 18.3177 71.9035 18.414C72.4127 18.5103 72.8756 18.7714 73.2203 19.1567C74.065 20.558 73.0514 22.1975 72.4883 23.3606C71.9252 24.5237 71.2354 25.7148 70.6301 26.8359C70.0247 27.9569 70.067 28.5595 71.4888 27.6066C72.4461 26.962 74.7125 25.3785 76.0217 24.5097C76.5335 24.0464 77.1066 23.6551 77.7251 23.3466C78.0489 22.8421 78.3867 22.3657 78.7246 21.9453C79.2711 21.2392 79.8943 20.5954 80.5828 20.0255C81.1879 19.5262 81.8797 19.1415 82.624 18.8904C83.3458 18.6166 84.1245 18.5251 84.8905 18.6242L84.8061 18.6522ZM186.417 27.4105C186.994 27.6627 187.698 26.906 188.444 25.7569C189.482 23.983 190.17 22.0282 190.471 19.9974C190.471 19.9974 190.556 19.9974 190.725 19.9974C190.896 20.0244 191.065 20.0619 191.232 20.1096L191.724 20.2917C191.865 20.3758 191.935 20.4319 191.935 20.4879C191.935 20.8663 191.654 21.7071 191.598 22.2256C191.541 22.7441 191.513 23.1644 191.457 23.795C191.4 24.4256 191.316 25.7149 191.316 26.4436C191.409 26.399 191.51 26.3734 191.614 26.3683C191.717 26.3632 191.82 26.3788 191.917 26.4141C192.014 26.4493 192.103 26.5035 192.179 26.5736C192.254 26.6436 192.315 26.728 192.358 26.8219C192.475 27.3999 192.475 27.9955 192.358 28.5735C192.22 29.084 192.122 29.604 192.062 30.129C191.964 30.7596 191.527 30.7596 191.105 30.5073C190.922 30.3952 190.978 30.1571 190.978 29.8488C190.978 29.5405 191.358 28.0551 191.358 27.7328C191.119 27.6627 190.908 28.041 190.739 28.1251C190.471 28.3353 190.148 28.4053 189.965 28.1251C189.782 27.8448 189.965 27.7328 189.965 27.1442C190.049 26.3643 190.19 25.5915 190.387 24.832C190.088 25.5652 189.72 26.269 189.289 26.934C188.842 27.6471 188.235 28.2468 187.515 28.6856C187.212 28.8616 186.863 28.9449 186.513 28.925C186.162 28.905 185.825 28.7827 185.544 28.5735C184.966 28.0808 184.607 27.3808 184.545 26.6257C184.418 25.6028 184.32 24.762 184.249 24.0753C184.179 23.3887 184.108 22.772 184.052 22.1695C183.996 21.5669 183.954 20.9504 183.925 20.2917C183.897 19.6331 183.827 18.8904 183.756 17.8534C183.939 17.7904 184.137 17.7904 184.32 17.8534C184.529 17.8763 184.726 17.9645 184.883 18.1057C184.953 18.1057 185.009 18.3018 185.037 18.6942C185.066 19.0866 185.037 19.6191 185.108 20.2357C185.178 20.8523 185.178 21.5389 185.221 22.2816C185.265 22.9864 185.35 23.6882 185.474 24.3836C185.554 25.0571 185.69 25.7227 185.882 26.3734C185.924 26.7938 185.938 27.1162 186.502 27.3824L186.417 27.4105ZM193.456 20.6C193.456 20.6 193.456 20.3338 193.456 20.1236V19.8013L193.794 19.6331L194.427 19.3529C194.681 19.2548 194.427 19.3529 194.709 19.2688L195.525 18.9605L196.384 18.6942H196.497H196.651C196.764 18.6942 196.905 19.7732 196.919 19.9974C197.081 21.4972 197.081 23.01 196.919 24.5097C197.495 23.6947 198.229 23.0023 199.078 22.4729C199.926 21.9436 200.872 21.5879 201.86 21.4268C202.155 21.403 202.449 21.4864 202.687 21.6616C202.925 21.8368 203.091 22.0919 203.155 22.3797C203.353 23.0092 203.353 23.684 203.155 24.3135C202.731 25.5776 201.96 26.6986 200.931 27.5506C200.3 28.2002 199.568 28.7444 198.763 29.1621C197.856 29.6391 196.868 29.9432 195.849 30.0589C195.272 30.0589 194.962 30.059 195.061 29.5125C195.258 28.2653 195.413 27.1722 195.553 25.869C195.807 23.9321 195.892 21.9769 195.807 20.0255C195.374 20.0712 194.956 20.2099 194.582 20.4318C194.483 20.4318 193.934 20.7401 193.625 20.8662C193.315 20.9924 193.498 20.7262 193.526 20.572L193.456 20.6ZM210.504 23.6269C210.588 23.4167 210.687 23.2065 210.757 22.9963C211.056 22.0185 211.258 21.0142 211.362 19.9974C211.222 19.9763 211.08 19.9763 210.94 19.9974C209.718 20.4526 208.625 21.1982 207.758 22.1695C206.829 23.1224 205.83 24.4677 206.52 25.5327C206.9 25.9671 209.335 25.5327 209.729 25.0002C210.091 24.586 210.377 24.1116 210.574 23.5988L210.504 23.6269ZM211.531 29.5125C211.531 29.7227 211.419 29.7927 211.165 29.6806C210.912 29.5685 210.306 29.106 210.321 28.9238C210.405 27.9289 210.461 26.6397 210.644 25.6167V25.7008C210.157 26.732 209.505 27.6783 208.716 28.5035C208.045 29.3267 207.127 29.9157 206.097 30.1851C205.245 30.3559 204.374 30.4124 203.507 30.3532C203.515 30.1206 203.593 29.8958 203.732 29.7086C204.017 29.5103 204.356 29.4029 204.704 29.4003C205.315 29.3721 205.911 29.2076 206.45 28.919C206.988 28.6303 207.455 28.2249 207.815 27.7328C208.153 27.3824 208.476 27.0041 208.786 26.6117C208.322 26.7238 207.773 26.8219 207.111 26.92C206.691 26.9179 206.282 26.7803 205.947 26.5276C205.612 26.275 205.368 25.9209 205.253 25.5186C205.08 24.7265 205.137 23.902 205.416 23.1406C205.695 22.3791 206.185 21.712 206.829 21.2166C207.931 20.0985 209.267 19.2371 210.743 18.6942C211.464 18.4557 212.233 18.398 212.981 18.5261L212.911 18.9324C212.559 21.2726 212.151 23.5848 211.869 26.4155C211.813 27.1162 211.672 28.8959 211.602 29.4844L211.531 29.5125Z" fill="#3A8DDE"/>
</svg>
